<?xml version="1.0" encoding="UTF-8" standalone="no"?>
<!DOCTYPE svg PUBLIC "-//W3C//DTD SVG 1.1//EN" "http://www.w3.org/Graphics/SVG/1.1/DTD/svg11.dtd">
<svg width="100%" height="100%" viewBox="0 0 188 51" version="1.1" xmlns="http://www.w3.org/2000/svg" xmlns:xlink="http://www.w3.org/1999/xlink" xml:space="preserve" xmlns:serif="http://www.serif.com/" style="fill-rule:evenodd;clip-rule:evenodd;stroke-linejoin:round;stroke-miterlimit:2;">
    <g transform="matrix(1,0,0,1,-2.214674,-376.395147)">
        <g id="CX-Builder" transform="matrix(0.98835,0,0,0.919255,2.214674,263.59658)">
            <rect x="0" y="122.707" width="190.096" height="54.522" style="fill:none;"/>
            <g transform="matrix(1,0,0,1,-1.215436,1.76368)">
                <g transform="matrix(0.877314,0,0,0.943257,-6.085496,-229.335073)">
                    <text x="9.471px" y="421.044px" style="font-family:'FranklinGothic-Heavy', 'Franklin Gothic Heavy', sans-serif;font-size:49.079px;fill:rgb(7,61,90);">C</text>
                    <g transform="matrix(49.079112,0,0,49.079112,71.993807,421.043667)">
                    </g>
                    <text x="40.313px" y="421.044px" style="font-family:'FranklinGothic-Heavy', 'Franklin Gothic Heavy', sans-serif;font-size:49.079px;fill:rgb(93,196,186);">X</text>
                </g>
                <g transform="matrix(0.779708,0,0,0.543919,-8.306986,-55.875123)">
                    <rect x="77.414" y="381.245" width="11.797" height="3.303" style="fill:rgb(7,61,90);"/>
                </g>
                <g transform="matrix(1.011788,0,0,1.087838,-31.571376,-288.450955)">
                    <path d="M93.579,419.392L93.579,390.626L104.371,390.626C106.569,390.626 108.331,390.917 109.659,391.5C110.987,392.082 112.027,392.978 112.779,394.188C113.531,395.398 113.907,396.663 113.907,397.985C113.907,399.214 113.574,400.372 112.907,401.458C112.239,402.543 111.232,403.42 109.885,404.087C111.625,404.597 112.962,405.467 113.897,406.697C114.833,407.926 115.3,409.378 115.3,411.053C115.3,412.4 115.016,413.653 114.447,414.81C113.878,415.968 113.175,416.861 112.337,417.489C111.5,418.117 110.451,418.591 109.188,418.911C107.926,419.232 106.379,419.392 104.548,419.392L93.579,419.392ZM97.386,402.713L103.606,402.713C105.293,402.713 106.503,402.602 107.236,402.38C108.204,402.092 108.933,401.615 109.424,400.947C109.914,400.28 110.159,399.443 110.159,398.436C110.159,397.481 109.931,396.64 109.473,395.914C109.015,395.188 108.361,394.691 107.511,394.423C106.66,394.155 105.202,394.021 103.135,394.021L97.386,394.021L97.386,402.713ZM97.386,415.997L104.548,415.997C105.777,415.997 106.641,415.952 107.138,415.86C108.014,415.703 108.747,415.442 109.335,415.075C109.924,414.709 110.408,414.176 110.787,413.476C111.167,412.776 111.356,411.968 111.356,411.053C111.356,409.98 111.082,409.048 110.532,408.257C109.983,407.465 109.221,406.909 108.246,406.589C107.272,406.268 105.869,406.108 104.037,406.108L97.386,406.108L97.386,415.997Z" style="fill:rgb(7,61,90);fill-rule:nonzero;"/>
                    <path d="M133.745,419.392L133.745,416.331C132.123,418.686 129.919,419.863 127.132,419.863C125.903,419.863 124.755,419.628 123.689,419.157C122.623,418.686 121.831,418.094 121.314,417.381C120.798,416.668 120.435,415.795 120.225,414.761C120.082,414.068 120.01,412.969 120.01,411.465L120.01,398.554L123.542,398.554L123.542,410.111C123.542,411.955 123.614,413.198 123.757,413.839C123.98,414.768 124.451,415.497 125.17,416.027C125.89,416.557 126.779,416.822 127.839,416.822C128.898,416.822 129.893,416.55 130.821,416.007C131.75,415.464 132.407,414.725 132.793,413.79C133.179,412.855 133.372,411.498 133.372,409.718L133.372,398.554L136.904,398.554L136.904,419.392L133.745,419.392Z" style="fill:rgb(7,61,90);fill-rule:nonzero;"/>
                    <rect x="142.457" y="398.554" width="3.532" height="20.838" style="fill:rgb(7,61,90);fill-rule:nonzero;"/>
                    <rect x="151.287" y="390.626" width="3.532" height="28.766" style="fill:rgb(7,61,90);fill-rule:nonzero;"/>
                    <path d="M173.813,419.392L173.813,416.763C172.492,418.83 170.549,419.863 167.985,419.863C166.324,419.863 164.797,419.405 163.403,418.489C162.01,417.574 160.931,416.295 160.166,414.653C159.401,413.012 159.018,411.125 159.018,408.992C159.018,406.913 159.365,405.026 160.058,403.332C160.751,401.638 161.791,400.339 163.178,399.437C164.564,398.534 166.114,398.083 167.828,398.083C169.084,398.083 170.202,398.348 171.183,398.877C172.165,399.407 172.963,400.097 173.577,400.947L173.577,390.626L177.09,390.626L177.09,419.392L173.813,419.392ZM162.648,408.992C162.648,411.661 163.21,413.656 164.335,414.977C165.46,416.298 166.788,416.959 168.319,416.959C169.862,416.959 171.174,416.328 172.253,415.065C173.332,413.803 173.872,411.877 173.872,409.287C173.872,406.435 173.322,404.342 172.223,403.008C171.125,401.674 169.771,401.006 168.162,401.006C166.592,401.006 165.281,401.647 164.228,402.929C163.174,404.211 162.648,406.232 162.648,408.992Z" style="fill:rgb(7,61,90);fill-rule:nonzero;"/>
                    <path d="M196.908,412.681L200.557,413.133C199.982,415.265 198.916,416.92 197.359,418.097C195.802,419.274 193.814,419.863 191.394,419.863C188.346,419.863 185.929,418.924 184.144,417.047C182.358,415.17 181.465,412.537 181.465,409.149C181.465,405.644 182.368,402.923 184.173,400.987C185.978,399.051 188.32,398.083 191.198,398.083C193.984,398.083 196.26,399.031 198.026,400.928C199.792,402.825 200.675,405.493 200.675,408.934C200.675,409.143 200.669,409.457 200.656,409.875L185.115,409.875C185.246,412.165 185.893,413.918 187.058,415.134C188.222,416.351 189.674,416.959 191.414,416.959C192.709,416.959 193.814,416.619 194.73,415.939C195.645,415.258 196.371,414.173 196.908,412.681ZM185.311,406.971L196.947,406.971C196.79,405.219 196.345,403.904 195.613,403.027C194.488,401.667 193.029,400.987 191.237,400.987C189.615,400.987 188.251,401.53 187.146,402.615C186.04,403.701 185.429,405.153 185.311,406.971Z" style="fill:rgb(7,61,90);fill-rule:nonzero;"/>
                    <path d="M204.953,419.392L204.953,398.554L208.131,398.554L208.131,401.713C208.942,400.235 209.691,399.26 210.378,398.789C211.065,398.318 211.82,398.083 212.644,398.083C213.835,398.083 215.045,398.462 216.275,399.221L215.058,402.498C214.195,401.987 213.331,401.732 212.468,401.732C211.696,401.732 211.003,401.965 210.388,402.429C209.773,402.893 209.335,403.538 209.073,404.362C208.681,405.618 208.485,406.991 208.485,408.482L208.485,419.392L204.953,419.392Z" style="fill:rgb(7,61,90);fill-rule:nonzero;"/>
                </g>
                <g transform="matrix(0.321264,0,0,0.345412,100.997924,125.793269)">
                    <path d="M51.3,40.43C51.3,45.657 47.057,49.9 41.83,49.9L22.88,49.9C17.653,49.9 13.41,45.657 13.41,40.43C13.41,35.203 17.653,30.96 22.88,30.96L41.83,30.96C47.057,30.96 51.3,35.203 51.3,40.43Z" style="fill:rgb(37,226,204);"/>
                </g>
                <g transform="matrix(0.321264,0,0,0.345412,101.001136,125.793269)">
                    <circle cx="41.82" cy="40.43" r="9.47" style="fill:rgb(0,61,91);"/>
                </g>
                <g transform="matrix(0.568256,0,0,0.610968,-5.452628,105.906948)">
                    <path d="M322.11,47.26L322.11,37.9L318.14,37.9L318.14,36.35L327.98,36.35L327.98,37.9L324,37.9L324,47.26L322.11,47.26Z" style="fill:rgb(0,61,91);fill-rule:nonzero;"/>
                </g>
                <g transform="matrix(0.568256,0,0,0.610968,-5.452628,105.906948)">
                    <path d="M342.34,47.26L342.32,36.35L340.76,36.35L336,43.81L331.13,36.35L329.58,36.35L329.58,47.26L331.4,47.26L331.4,39.74L335.53,45.98L336.4,45.98L340.5,39.6L340.53,47.26L342.34,47.26Z" style="fill:rgb(0,61,91);fill-rule:nonzero;"/>
                </g>
            </g>
        </g>
    </g>
</svg>
