<?xml version="1.0" encoding="UTF-8" standalone="no"?>
<!DOCTYPE svg PUBLIC "-//W3C//DTD SVG 1.1//EN" "http://www.w3.org/Graphics/SVG/1.1/DTD/svg11.dtd">
<svg width="100%" height="100%" viewBox="0 0 2062 526" version="1.1" xmlns="http://www.w3.org/2000/svg" xmlns:xlink="http://www.w3.org/1999/xlink" xml:space="preserve" xmlns:serif="http://www.serif.com/" style="fill-rule:evenodd;clip-rule:evenodd;stroke-linejoin:round;stroke-miterlimit:2;">
    <g id="Artboard1" transform="matrix(1,0,0,0.785714,614.43,50.9359)">
        <rect x="-614.43" y="-64.828" width="2061.01" height="668.435" style="fill:none;"/>
        <g transform="matrix(0.371872,0,0,0.473291,-336.533,-5.33094)">
            <path d="M6.4,0C6.938,-0 7.48,-0.001 8.032,-0.001C25.952,-0.015 43.472,0.6 61.232,2.551C62.576,2.695 63.928,2.839 65.272,2.982C66.568,3.121 67.864,3.261 69.168,3.4C69.756,3.464 70.344,3.527 70.952,3.592C74.456,3.977 77.944,4.432 81.432,4.952C82.928,5.173 82.928,5.173 84.456,5.398C87.304,5.822 90.152,6.246 93.016,6.678C94.24,6.862 95.464,7.045 96.696,7.227C98.48,7.492 100.256,7.759 102.04,8.027C102.587,8.108 103.136,8.189 103.696,8.272C105.976,8.618 108.056,9.021 110.248,9.752C111.536,9.984 112.824,10.194 114.12,10.39C126.68,12.35 138.84,15.054 151.08,18.55C154.112,19.358 157.144,20.158 160.2,20.95C162.8,21.669 165.336,22.494 167.896,23.35C169.512,23.855 171.128,24.358 172.744,24.854C173.648,25.13 174.544,25.407 175.472,25.694C176.4,25.979 177.336,26.263 178.288,26.558C180.136,27.124 181.992,27.694 183.84,28.254C184.656,28.503 185.472,28.753 186.312,29.01C189.28,29.938 192.224,30.922 195.192,31.922C198.696,33.106 202.216,34.202 205.752,35.25C210.008,36.546 214.072,38.114 218.152,39.874C221.064,41.09 224.016,42.17 226.952,43.25C231.832,45.042 236.552,47.082 241.192,49.322C244.168,50.746 247.168,52.066 250.232,53.298C255.632,55.522 260.792,58.122 265.992,60.786C267.288,61.45 268.576,62.114 269.872,62.77C286.352,71.17 302.912,80.05 318.272,90.29C320.232,91.594 322.216,92.866 324.192,94.146C334.992,101.098 345.552,108.066 355.472,116.226C357.472,117.818 359.52,119.322 361.6,120.81C366.576,124.386 371.36,128.17 376.16,132.01C377.272,132.898 378.392,133.77 379.52,134.642C381.392,136.178 381.392,136.178 383,137.802C385.248,140.042 387.776,141.834 390.328,143.714L391.792,144.986L391.792,146.586C392.433,146.844 392.433,146.844 393.088,147.107C395.696,148.579 397.736,150.579 399.896,152.635C400.816,153.499 401.736,154.363 402.664,155.235C403.35,155.88 403.35,155.88 404.048,156.539C406.648,158.955 409.336,161.267 412.008,163.595C413.392,164.987 413.392,164.987 413.392,166.587C413.825,166.761 414.256,166.934 414.704,167.112C417.248,168.56 419.16,170.52 421.192,172.584C421.598,172.983 422,173.383 422.424,173.792C425.392,176.776 425.392,176.776 425.392,178.584C425.854,178.777 426.32,178.97 426.792,179.168C428.944,180.384 430.176,181.768 431.792,183.632C434.728,186.984 437.712,190.272 440.752,193.552C450.192,203.792 450.192,203.792 450.192,205.792C450.959,206.089 450.959,206.089 451.744,206.392C453.832,207.656 453.624,208.328 454.192,210.592C454.72,210.856 456.848,211.92 457.392,212.192C457.682,213.256 457.95,214.32 458.192,215.392C458.984,215.656 459.776,215.92 460.592,216.192C462,217.912 462,217.912 463.544,220.144C465.664,223.152 467.824,226.088 470.144,228.944C475.8,235.936 481.104,243.184 486.224,250.624C486.69,251.298 487.16,251.968 487.64,252.664L488.976,254.624C489.371,255.202 489.766,255.776 490.176,256.376C491.032,257.824 491.032,257.824 491.032,259.424L492.632,259.424C493.8,261 493.8,261 495.144,263.208L496.656,265.656C497.175,266.504 497.696,267.352 498.232,268.232C499.232,269.84 500.24,271.448 501.24,273.048C507.544,283.208 513.72,293.448 519.56,303.928C520.592,305.768 521.64,307.608 522.696,309.44C530.856,323.76 537.656,338.72 544.216,353.84C545.792,357.464 547.392,361.064 549.064,364.64C552.44,372.008 555.168,379.68 557.624,387.36C558.256,389.192 558.992,390.96 559.736,392.752C561.448,396.928 562.616,401.232 563.768,405.552C564.6,408.216 565.736,410.504 566.992,412.992C567.52,414.896 567.52,414.896 567.84,416.64C568.235,418.608 568.626,420.28 569.392,422.144C570.183,424.176 570.56,426.008 570.944,428.144C571.403,430.6 571.848,432.296 572.992,434.544C574.448,437.512 574.84,440.288 575.376,443.504C575.753,445.536 576.256,447.4 576.896,449.368C580.168,459.688 581.768,470.648 583.792,481.288C583.934,482.031 584.077,482.776 584.223,483.536C585.615,490.848 586.695,498.176 587.639,505.536C587.738,506.288 587.838,507.04 587.941,507.816C588.071,508.824 588.071,508.824 588.205,509.856C588.58,512.256 588.58,512.256 589.397,515.08C590.381,518.936 590.605,522.76 590.821,526.76C590.868,527.535 590.915,528.312 590.964,529.112C591.114,531.576 591.255,534.048 591.396,536.512C591.583,539.744 591.774,542.976 591.971,546.192C592.019,546.987 592.066,547.784 592.116,548.6C592.402,553.104 592.845,557.56 593.46,562.04C594.684,571.32 594.396,580.68 594.348,589.96C594.342,591.888 594.336,593.816 594.331,595.744C594.18,633.824 594.18,633.824 592.595,636.944C592.501,638.104 592.451,639.264 592.426,640.424C592.405,641.147 592.384,641.872 592.362,642.616C592.34,643.402 592.317,644.184 592.295,645C592.042,652.192 591.463,659.32 590.599,666.44C590.494,667.312 590.39,668.192 590.282,669.088C589.507,675.232 589.507,675.232 588.602,676.136C588.449,677.264 588.343,678.392 588.258,679.52C588.172,680.576 588.172,680.576 588.084,681.648C588.024,682.403 587.963,683.16 587.901,683.936C587.402,689.656 586.677,695.136 585.229,700.656C584.285,704.656 583.677,708.736 583.069,712.816C582.567,716.04 581.813,718.728 580.597,721.776C580.111,724.032 579.757,726.296 579.397,728.576C578.793,732.416 578.061,735.76 576.597,739.376C576.07,742.024 575.605,744.664 575.181,747.328C574.531,751.096 573.365,754.264 571.797,757.808C571.391,759.248 571.023,760.696 570.693,762.16C568.101,772.96 564.357,783.36 560.613,793.84C560.306,794.696 559.999,795.544 559.685,796.424C558.381,800.032 557.045,803.632 555.685,807.224C555.167,808.632 554.669,810.048 554.181,811.464C550.733,821.384 546.445,830.904 542.021,840.424C540.941,842.744 539.893,845.08 538.853,847.424C534.477,857.264 529.813,866.784 524.613,876.224C524.27,876.861 523.927,877.496 523.573,878.152C515.789,892.632 507.653,906.872 498.373,920.392C497.357,921.888 496.357,923.392 495.357,924.904C491.389,930.92 487.277,936.824 483.037,942.584C481.917,944.12 480.805,945.648 479.685,947.184C479.16,947.903 478.637,948.624 478.093,949.36C476.813,951.136 475.573,952.928 474.333,954.728C473.772,955.471 473.213,956.216 472.637,956.976L471.037,956.976C470.806,957.587 470.575,958.2 470.337,958.824C469.441,960.976 469.441,960.976 467.841,963.376L466.241,963.376C466.04,963.954 465.839,964.528 465.631,965.128C463.199,970.656 458.519,975.208 454.271,979.368C451.967,981.944 449.791,984.488 447.871,987.368L446.271,987.368C446.09,987.797 445.908,988.224 445.721,988.664C444.305,991.224 442.641,993.2 440.673,995.368L439.073,995.368C438.87,995.833 438.666,996.296 438.456,996.776C437.368,998.76 436.16,1000.05 434.536,1001.63C433.953,1002.21 433.368,1002.78 432.768,1003.38C431.856,1004.26 431.856,1004.26 430.92,1005.18C426.936,1009.06 423.104,1012.99 419.48,1017.18C418.08,1018.76 416.6,1020.14 414.976,1021.49C413.08,1023.09 411.288,1024.7 409.576,1026.49C407.88,1028.14 407.88,1028.14 406.28,1028.14C406.105,1028.59 405.93,1029.04 405.749,1029.51C404.341,1031.92 402.573,1033.22 400.381,1034.94C398.173,1036.67 396.061,1038.34 394.101,1040.36C392.685,1041.74 392.685,1041.74 391.085,1041.74C390.887,1042.21 390.689,1042.7 390.485,1043.18C389.341,1045.18 388.229,1046.12 386.285,1047.34L384.685,1047.34C384.491,1047.81 384.297,1048.27 384.098,1048.76C382.89,1050.88 381.618,1051.9 379.682,1053.39C378.618,1054.22 378.618,1054.22 377.522,1055.06L375.082,1056.94C373.666,1058.06 372.25,1059.18 370.842,1060.3C368.53,1062.12 366.21,1063.94 363.882,1065.74C363.195,1066.28 362.506,1066.82 361.802,1067.38C357.674,1070.54 357.674,1070.54 355.882,1070.54C355.618,1071.34 355.354,1072.13 355.082,1072.94C353.714,1074.03 353.714,1074.03 351.93,1075.14C349.226,1076.88 346.562,1078.64 343.93,1080.5C343.259,1080.97 342.586,1081.44 341.898,1081.93C340.594,1082.85 339.29,1083.77 337.994,1084.7C332.81,1088.37 327.514,1091.82 322.154,1095.26C320.762,1096.15 319.37,1097.05 317.986,1097.96C312.81,1101.34 307.586,1104.61 302.226,1107.8C301.654,1108.15 301.082,1108.49 300.49,1108.85C297.634,1110.54 295.234,1111.83 291.85,1112.2L291.85,1113.8C282.97,1118.5 274.01,1123.16 264.97,1127.64C262.698,1128.77 260.434,1129.9 258.178,1131.05C250.954,1134.66 243.698,1138.12 236.098,1141.05C233.994,1141.9 231.946,1142.85 229.89,1143.82C226.026,1145.6 222.106,1146.95 218.05,1148.25C216.058,1148.92 214.194,1149.69 212.29,1150.57C205.938,1153.5 199.25,1155.62 192.61,1157.82C191.762,1158.1 190.922,1158.39 190.05,1158.68C178.85,1162.46 167.57,1166.15 156.13,1169.08C153.618,1169.73 151.122,1170.42 148.626,1171.13C145.442,1172.01 142.306,1172.52 139.026,1172.98C138.447,1173.22 137.866,1173.47 137.274,1173.73C134.434,1174.8 131.562,1175.26 128.554,1175.73C124.498,1176.4 120.554,1177.14 116.554,1178.22C111.77,1179.49 107.034,1180.03 102.074,1180.55C99.434,1180.91 96.97,1181.49 94.402,1182.16C90.61,1183.02 86.746,1183.41 82.882,1183.87C82.034,1183.98 81.186,1184.09 80.314,1184.19C73.954,1184.98 73.954,1184.98 70.874,1184.94C68.842,1184.97 67.37,1185.24 65.426,1185.73C61.186,1186.7 57.026,1187 52.626,1187.25C51.81,1187.3 50.986,1187.35 50.146,1187.4C48.418,1187.51 46.698,1187.61 44.97,1187.71C42.354,1187.87 39.746,1188.03 37.138,1188.19C35.45,1188.3 33.77,1188.4 32.082,1188.5C31.314,1188.55 30.546,1188.6 29.754,1188.64C24.938,1188.92 20.154,1188.99 15.354,1188.91C13.41,1188.83 13.41,1188.83 11.818,1189.77C9.618,1189.85 7.434,1189.88 5.234,1189.88C4.576,1189.88 3.922,1189.88 3.242,1189.88C1.85,1189.88 0.45,1189.88 -0.942,1189.88C-3.062,1189.87 -5.174,1189.88 -7.294,1189.88C-8.654,1189.88 -10.006,1189.88 -11.366,1189.88C-12.31,1189.88 -12.31,1189.88 -13.262,1189.88C-16.206,1189.87 -19.054,1189.75 -21.982,1189.36C-24.454,1189.04 -26.646,1188.93 -29.126,1189.02C-35.91,1189.08 -42.646,1188.32 -49.366,1187.65C-51.654,1187.42 -53.942,1187.2 -56.23,1186.98C-57.702,1186.84 -59.166,1186.69 -60.638,1186.55C-61.654,1186.45 -61.654,1186.45 -62.686,1186.35C-66.406,1185.98 -70.094,1185.52 -73.806,1184.98C-75.246,1184.8 -76.686,1184.63 -78.134,1184.46C-86.214,1183.5 -94.214,1182.45 -102.214,1180.72C-105.358,1180.11 -108.494,1179.73 -111.654,1179.38C-115.79,1178.91 -119.614,1178.17 -123.574,1176.86C-126.566,1175.95 -129.598,1175.29 -132.694,1174.63C-133.32,1174.49 -133.942,1174.35 -134.59,1174.21C-137.022,1173.68 -139.454,1173.15 -141.894,1172.63C-152.134,1170.43 -162.054,1167.33 -172.054,1164.15C-174.678,1163.32 -177.31,1162.52 -179.942,1161.71C-192.182,1157.95 -204.102,1153.78 -215.862,1148.91C-217.67,1148.17 -219.486,1147.47 -221.31,1146.78C-240.43,1139.46 -259.23,1130.7 -277.15,1120.94C-279.35,1119.76 -281.59,1118.67 -283.838,1117.56C-287.39,1115.8 -290.79,1113.88 -294.158,1111.8C-296.262,1110.52 -298.39,1109.28 -300.526,1108.06C-310.446,1102.27 -320.126,1095.98 -329.806,1089.66C-331.878,1088.33 -333.982,1087.05 -336.094,1085.79L-338.59,1084.14L-338.59,1082.54L-340.302,1081.95C-342.918,1080.8 -344.918,1079.33 -347.19,1077.59C-347.611,1077.27 -348.03,1076.95 -348.462,1076.61C-351.518,1074.28 -354.55,1071.9 -357.582,1069.52C-359.574,1068 -361.606,1066.54 -363.646,1065.08C-367.806,1062.08 -371.726,1058.85 -375.646,1055.56C-377.39,1054.12 -379.126,1052.79 -380.982,1051.51C-383.422,1049.76 -385.326,1047.89 -387.43,1045.76C-388.974,1044.32 -390.518,1042.88 -392.078,1041.45C-392.497,1041.07 -392.918,1040.69 -393.35,1040.29C-399.318,1034.82 -399.318,1034.82 -405.59,1029.73C-407.414,1028.2 -408.798,1026.56 -410.27,1024.7C-412.142,1022.59 -414.326,1020.85 -416.502,1019.07C-417.838,1017.78 -417.838,1017.78 -418.638,1015.38L-420.038,1014.68C-423.646,1012.88 -426.054,1009.54 -428.678,1006.52C-430.222,1004.73 -431.622,1003.26 -433.478,1001.77C-435.806,999.904 -437.614,997.816 -439.55,995.552C-441.734,993.008 -444.006,990.544 -446.278,988.072C-447.478,986.568 -447.478,986.568 -447.478,984.968L-449.078,984.968L-449.078,983.368L-450.678,983.368C-452.022,981.76 -453.286,980.152 -454.526,978.472C-457.158,974.952 -459.846,971.528 -462.686,968.152C-474.526,953.832 -474.526,953.832 -476.526,950.312C-478.374,947.32 -480.55,944.64 -482.726,941.912C-486.63,936.888 -490.198,931.752 -493.446,926.312C-495.174,923.44 -496.99,920.688 -498.934,917.992C-502.054,913.576 -504.766,908.952 -507.414,904.312C-507.877,903.513 -508.342,902.712 -508.814,901.888C-509.742,900.28 -510.67,898.664 -511.598,897.056C-513.502,893.76 -515.43,890.488 -517.366,887.216C-518.614,885.016 -519.75,882.792 -520.862,880.52C-522.902,876.352 -525.134,872.28 -527.414,868.28C-530.646,862.512 -533.558,856.68 -536.214,850.6C-536.709,849.496 -537.206,848.392 -537.702,847.296C-543.494,834.416 -548.982,821.456 -553.782,808.176C-554.201,807.04 -554.622,805.912 -555.038,804.776C-555.322,804.011 -555.322,804.011 -555.613,803.232C-556.153,801.848 -556.765,800.488 -557.381,799.128C-558.669,795.968 -559.517,792.832 -560.381,789.528C-561.045,787.136 -561.877,784.856 -562.781,782.544C-563.677,780.2 -564.453,777.824 -565.237,775.44C-565.685,774.08 -566.157,772.72 -566.637,771.368C-567.461,768.736 -568.013,766.112 -568.541,763.408C-568.961,761.536 -568.961,761.536 -570.589,759.368C-571.021,757.48 -571.397,755.576 -571.741,753.672C-572.377,750.24 -573.045,746.904 -574.237,743.592C-575.525,740.056 -576.045,736.496 -576.565,732.792C-576.905,730.576 -576.905,730.576 -577.757,728.68C-578.861,725.84 -579.301,722.944 -579.789,719.96C-580.469,715.824 -581.245,711.72 -582.173,707.64C-582.937,704.176 -583.581,700.688 -584.237,697.16C-584.375,696.431 -584.514,695.704 -584.657,694.952C-585.705,689.44 -586.633,683.912 -587.337,678.392C-587.405,677.86 -587.473,677.328 -587.543,676.776C-587.831,674.52 -588.117,672.264 -588.407,670.008C-588.617,668.352 -588.829,666.696 -589.041,665.04L-589.419,662.064C-589.655,660.32 -589.92,658.584 -590.227,656.848C-590.593,654.52 -590.745,652.288 -590.819,649.936L-590.909,647.392C-590.966,645.632 -591.022,643.88 -591.078,642.12L-591.169,639.584C-591.193,638.823 -591.217,638.064 -591.242,637.28C-591.323,635.208 -591.323,635.208 -592.194,632.92C-593.49,621.64 -593.114,610.2 -593.098,598.92C-593.094,596.168 -593.096,593.416 -593.101,590.68C-593.105,588.008 -593.102,585.328 -593.1,582.68C-593.102,581.712 -593.103,580.744 -593.105,579.744C-593.06,563.024 -593.06,563.024 -591.393,556.944C-591.28,555.768 -591.197,554.592 -591.14,553.416C-591.09,552.4 -591.09,552.4 -591.039,551.368L-590.943,549.248L-590.839,547.184C-590.674,543.72 -590.598,540.296 -590.671,536.864C-590.688,533.856 -590.249,531.312 -589.423,528.384C-588.447,524.224 -588.247,519.904 -587.847,515.664C-587.161,508.808 -586.375,502.224 -584.743,495.504C-583.871,491.472 -583.503,487.424 -583.095,483.264C-582.714,480.888 -582.271,479.048 -581.479,476.816C-579.847,472.176 -578.959,467.376 -577.991,462.576C-574.775,447.136 -570.631,431.936 -565.831,416.896C-565.023,414.248 -564.223,411.6 -563.423,408.944C-562.645,406.544 -561.775,404.192 -560.879,401.84C-559.951,399.352 -559.095,396.848 -558.231,394.336C-556.215,388.472 -554.135,382.656 -551.671,376.976C-550.607,374.44 -549.615,371.88 -548.639,369.312C-546.463,363.608 -544.159,358.032 -541.527,352.512C-540.087,349.496 -538.719,346.456 -537.415,343.392C-534.239,335.928 -530.527,328.832 -526.615,321.712L-525.199,319.128C-524.406,317.68 -523.607,316.224 -522.815,314.776C-521.943,313.152 -521.119,311.52 -520.311,309.864C-518.583,306.352 -516.623,302.984 -514.663,299.624C-512.967,296.688 -511.343,293.736 -509.759,290.744C-507.799,287.112 -505.535,283.8 -503.127,280.424C-501.927,278.68 -500.903,276.936 -499.911,275.064C-497.743,271.024 -495.119,267.336 -492.479,263.624C-490.671,261.048 -488.935,258.424 -487.207,255.792C-485.551,253.288 -483.903,250.872 -481.959,248.592C-480.295,246.648 -479.111,244.736 -477.807,242.544C-476.679,240.992 -475.511,239.472 -474.351,237.944C-472.415,235.344 -470.599,232.664 -468.775,229.976C-467.383,228.112 -465.879,226.552 -464.207,224.936C-462.031,222.392 -460.151,219.696 -458.255,216.936C-456.183,213.952 -454.047,211.44 -451.407,208.936C-450.143,207.448 -448.903,205.944 -447.671,204.424C-447.319,204.067 -446.968,203.708 -446.607,203.336L-445.007,203.336L-444.457,201.584C-443.185,198.856 -441.569,197.448 -439.409,195.336C-437.529,193.352 -435.665,191.344 -433.809,189.336C-430.665,185.944 -427.505,182.584 -424.209,179.336C-423.491,178.619 -415.409,170.536 -413.393,168.52C-412.025,167.152 -410.665,165.784 -409.313,164.408C-405.585,160.64 -401.841,156.952 -397.793,153.528C-395.977,151.968 -394.209,150.36 -392.433,148.744C-380.353,137.864 -380.353,137.864 -374.513,133.784C-372.393,132.296 -370.753,130.784 -368.961,128.936C-366.681,126.88 -364.729,125.128 -361.761,124.136C-360.897,123.248 -360.897,123.248 -360.009,122.336C-357.753,120.128 -355.561,118.68 -352.849,117.104C-351.321,116.112 -350.233,115.024 -348.953,113.736C-347.633,112.736 -346.297,111.752 -344.953,110.784L-340.153,107.336C-337.889,105.672 -335.625,104.008 -333.361,102.344C-331.409,100.968 -329.409,99.752 -327.353,98.536C-325.065,97.056 -322.777,95.568 -320.497,94.08C-318.553,92.936 -318.553,92.936 -316.953,92.936L-316.953,91.336C-315.017,89.952 -315.017,89.952 -312.353,88.336C-311.885,88.052 -311.417,87.768 -310.937,87.472C-307.097,85.176 -303.145,83.176 -299.097,81.224C-296.681,80.008 -294.433,78.616 -292.161,77.152C-289.561,75.528 -286.849,74.112 -284.161,72.656C-281.625,71.264 -279.137,69.8 -276.649,68.336C-269.881,64.408 -262.809,61.144 -255.689,57.856C-254.033,57.082 -252.377,56.296 -250.729,55.504C-233.289,47.184 -215.289,39.744 -196.969,33.744C-195.601,33.283 -194.233,32.816 -192.865,32.36C-160.145,21.32 -160.145,21.32 -144.225,18.12C-142.489,17.725 -142.489,17.725 -140.401,16.968C-137.953,16.171 -135.545,15.552 -133.033,15C-132.137,14.801 -131.241,14.602 -130.313,14.397C-129.369,14.191 -128.425,13.985 -127.457,13.772C-126.481,13.557 -125.497,13.343 -124.489,13.121C-111.929,10.377 -111.929,10.377 -105.929,9.257C-104.625,9.008 -103.321,8.751 -102.025,8.49C-84.745,5.018 -67.385,3.146 -49.785,1.722C-49.179,1.673 -48.577,1.623 -47.953,1.572C-29.873,0.124 -11.793,-0.02 6.367,-0.028L6.4,0ZM-98.4,50.56C-100.136,50.876 -101.88,51.192 -103.616,51.504C-126.976,55.8 -149.536,61.664 -172.016,69.264C-174.288,70.013 -176.584,70.696 -178.88,71.376C-182.568,72.504 -186.048,73.8 -189.6,75.376C-191.264,76.014 -192.928,76.648 -194.6,77.28C-198.712,78.848 -202.68,80.576 -206.68,82.432C-209.376,83.648 -212.112,84.728 -214.84,85.816C-217.92,87.048 -220.936,88.416 -223.96,89.784C-224.928,90.213 -224.928,90.213 -225.92,90.648C-232.024,93.376 -238,96.36 -243.92,99.368C-245.456,100.139 -246.992,100.904 -248.528,101.664C-256.408,105.568 -264.128,109.648 -271.648,114.224C-273.032,115.032 -274.448,115.784 -275.88,116.496C-278.448,117.792 -280.864,119.224 -283.304,120.744C-283.754,121.023 -284.208,121.303 -284.672,121.592C-288.264,123.824 -291.848,126.088 -295.392,128.376C-296.848,129.304 -298.304,130.224 -299.76,131.144C-303.992,133.808 -308.16,136.552 -312.24,139.464C-314.224,140.864 -316.224,142.232 -318.224,143.6C-322.496,146.52 -326.624,149.568 -330.624,152.88C-333.16,154.936 -335.728,156.952 -338.296,158.96C-342.52,162.264 -346.696,165.624 -350.856,169.04C-352.184,170.128 -353.528,171.208 -354.872,172.272C-356.416,173.528 -357.784,174.8 -359.176,176.216C-360.152,177.088 -361.136,177.96 -362.128,178.816C-364.4,180.792 -366.664,182.776 -368.928,184.768C-370.632,186.264 -372.328,187.688 -374.128,189.072C-375.96,190.608 -377.344,192.272 -378.84,194.128C-380.096,195.552 -381.44,196.744 -382.88,197.968C-388.8,203.024 -394.32,208.608 -399.2,214.608C-401.112,216.568 -403.064,218.472 -405.048,220.36C-406.968,222.376 -408.672,224.424 -410.4,226.608C-412.664,229.472 -414.984,232.056 -417.6,234.608C-425.84,242.16 -425.84,242.16 -430.4,251.408C-431.192,251.672 -431.984,251.936 -432.8,252.208C-433.386,253.824 -433.386,253.824 -433.6,255.408L-435.2,255.408C-436.304,256.984 -437.368,258.584 -438.4,260.208C-439.52,261.736 -440.656,263.248 -441.8,264.76C-448.808,274.04 -455.64,283.4 -461.88,293.32C-463.08,295.2 -464.312,297.04 -465.576,298.88C-467.944,302.4 -470.032,306.064 -472.112,309.76C-473.544,312.296 -475,314.792 -476.576,317.232C-480.632,323.16 -480.632,323.16 -482.424,329.872L-484.024,329.872C-487.976,337.68 -491.808,345.552 -495.544,353.472C-497.36,357.304 -499.2,361.112 -501.112,364.912C-503.96,370.568 -506.448,376.352 -508.768,382.192C-509.624,384.32 -510.512,386.432 -511.408,388.544C-513.32,393.128 -515.128,397.744 -516.912,402.384C-517.182,403.081 -517.451,403.776 -517.728,404.496C-519.272,408.544 -520.624,412.576 -521.84,416.736C-522.568,419.192 -523.376,421.608 -524.2,424.032C-527.72,434.512 -530.944,444.992 -533.64,455.712C-534.102,457.504 -534.608,459.296 -535.2,461.056C-535.596,462.672 -535.978,464.288 -536.352,465.904L-536.949,468.48C-537.594,471.416 -538.189,474.352 -538.773,477.28C-539.203,479.448 -539.645,481.608 -540.093,483.776C-548.253,524.176 -551.853,565.376 -551.213,606.976C-551.189,608.568 -551.172,610.168 -551.155,611.76C-550.807,640.32 -548.651,670.32 -541.955,698.16C-541.484,700.296 -541.147,702.44 -540.795,704.592C-537.747,721.152 -533.619,737.232 -528.795,753.392C-528.548,754.224 -528.548,754.224 -528.296,755.072C-524.408,768.112 -520.304,780.992 -515.016,793.552C-514.176,795.608 -513.504,797.712 -512.816,799.816C-512.294,801.168 -511.76,802.52 -511.216,803.864C-510.952,804.517 -510.688,805.168 -510.416,805.84C-510.152,806.49 -509.888,807.144 -509.616,807.808C-509.387,808.387 -509.158,808.968 -508.922,809.568C-504.762,819.888 -500.282,829.968 -495.242,839.888C-494.162,842 -493.106,844.128 -492.058,846.256C-481.578,867.456 -469.578,888.256 -455.818,907.536C-454.866,908.888 -453.93,910.256 -453.018,911.632C-452.54,912.346 -452.058,913.064 -451.57,913.8L-450.29,915.744C-448.682,917.672 -447.034,918.608 -444.874,919.848C-444.875,919.191 -444.875,918.536 -444.876,917.856C-444.912,878.896 -444.939,839.936 -444.956,801.056C-444.958,796.376 -444.96,791.696 -444.962,786.976C-444.962,786.04 -444.963,785.112 -444.963,784.152C-444.97,769.112 -444.983,753.992 -444.998,738.952C-445.012,723.432 -445.021,707.992 -445.025,692.472C-445.027,682.952 -445.034,673.352 -445.047,663.832C-445.055,657.28 -445.058,650.712 -445.056,644.152C-445.055,640.376 -445.056,636.6 -445.065,632.792C-445.073,629.328 -445.073,625.864 -445.068,622.392C-445.067,621.144 -445.069,619.904 -445.074,618.656C-445.102,611.376 -444.68,604.336 -443.666,597.136C-443.044,592.536 -442.754,587.936 -442.45,583.296C-442.383,582.32 -442.316,581.344 -442.248,580.336C-442.038,577.264 -441.832,574.192 -441.628,571.136C-441.42,568.04 -441.212,564.952 -441,561.856C-440.871,559.944 -440.742,558.032 -440.616,556.12C-439.768,543.56 -439.768,543.56 -438.48,537.48C-438.037,534.944 -437.624,532.4 -437.2,529.856C-434.24,512.176 -431.088,494.816 -426.48,477.456C-426.036,475.752 -425.592,474.04 -425.152,472.336C-424.731,470.744 -424.312,469.152 -423.88,467.552C-423.692,466.848 -423.505,466.144 -423.312,465.416C-422.248,461.536 -420.928,457.936 -419.28,454.216C-418.517,452.256 -417.768,450.288 -417.032,448.312C-416.724,447.488 -416.724,447.488 -416.411,446.648C-414.707,442.072 -413.075,437.448 -411.499,432.808C-408.195,423.288 -403.859,414.248 -399.419,405.208C-398.874,404.088 -398.331,402.968 -397.787,401.848C-396.155,398.496 -394.515,395.152 -392.867,391.768C-392.59,391.203 -392.313,390.64 -392.027,390.056C-388.891,383.664 -385.707,377.416 -381.947,371.336C-381.115,369.976 -380.291,368.624 -379.459,367.264C-379.032,366.569 -378.603,365.872 -378.171,365.16C-376.795,362.904 -375.451,360.632 -374.107,358.352C-368.699,349.232 -362.987,340.672 -356.347,332.432C-354.707,330.344 -353.163,328.2 -351.619,326.048C-349.971,323.752 -348.307,321.536 -346.467,319.4C-344.683,317.488 -344.683,317.488 -344.019,315L-341.619,313.4L-340.819,311C-339.059,309.144 -337.235,307.392 -335.371,305.648C-334.243,304.64 -334.243,304.64 -334.419,303L-333.107,302.528C-330.363,300.888 -328.635,298.592 -326.619,296.152C-325.763,295.136 -324.899,294.112 -324.043,293.096L-322.787,291.592C-318.003,285.888 -313.027,280.872 -307.347,276.152C-305.059,274.24 -303.147,272.472 -301.251,270.144C-299.299,267.848 -297.467,266.432 -295.003,264.76C-292.995,263.32 -291.371,261.552 -289.651,259.792C-288.299,258.592 -286.923,257.424 -285.539,256.256C-284.579,255.44 -283.627,254.6 -282.699,253.752C-278.579,250.008 -274.139,246.776 -269.579,243.592C-268.235,242.632 -266.931,241.624 -265.635,240.608L-265.635,239.008C-265.076,238.822 -264.515,238.634 -263.939,238.442C-261.203,237.218 -259.043,235.53 -256.731,233.658C-252.147,230.042 -247.371,226.866 -242.411,223.818C-240.979,222.906 -239.539,221.986 -238.107,221.066C-221.627,210.586 -204.987,201.226 -187.227,193.146C-183.059,191.234 -178.907,189.314 -174.827,187.242C-171.827,185.73 -168.827,184.426 -165.707,183.274C-165.19,183.085 -164.675,182.895 -164.139,182.699C-162.227,182.002 -160.315,181.315 -158.403,180.627C-157.555,180.32 -156.715,180.013 -155.843,179.699C-152.963,178.659 -150.083,177.619 -147.203,176.579C-146.291,176.25 -145.379,175.921 -144.443,175.579C-132.043,171.139 -119.483,167.499 -106.683,164.299C-105.928,164.108 -105.171,163.918 -104.395,163.721C-89.835,160.065 -75.195,157.489 -60.395,155.481C-58.675,155.238 -56.963,154.978 -55.251,154.687C-44.451,152.911 -33.491,152.311 -22.531,151.839C-20.155,151.736 -17.779,151.622 -15.395,151.508C-13.867,151.439 -12.347,151.371 -10.819,151.303C-10.115,151.269 -9.411,151.235 -8.683,151.2C-2.163,150.933 -2.163,150.933 0.757,151.888C1.893,154.152 1.661,156.064 1.661,158.592C1.662,159.648 1.663,160.696 1.664,161.784C1.662,162.616 1.662,162.616 1.659,163.464C1.655,165.096 1.659,166.728 1.664,168.36C1.668,176.224 1.291,184.04 0.752,191.88C0.264,191.903 -0.224,191.926 -0.728,191.95C-33.688,193.39 -33.688,193.39 -66.488,197.478C-67.368,197.62 -68.248,197.762 -69.152,197.908C-80.032,199.676 -90.752,202.028 -101.472,204.78C-102.001,204.916 -102.528,205.052 -103.08,205.192C-108.04,206.472 -112.92,207.768 -117.72,209.656C-122.184,211.376 -126.76,212.752 -131.32,214.24C-135.88,215.744 -140.36,217.352 -144.84,219.176C-146.984,220.048 -149.152,220.84 -151.32,221.632C-165.96,227.232 -180.12,234.672 -193.8,242.272C-194.329,242.562 -194.856,242.852 -195.408,243.152C-199.696,245.512 -203.888,248 -208.048,250.576C-212.176,253.12 -216.288,255.608 -220.528,257.976C-224.664,260.352 -228.224,263.192 -231.888,266.296C-234.048,268.104 -236.224,269.608 -238.608,271.104C-241.832,273.144 -241.832,273.144 -244.704,275.6C-245.808,276.704 -245.808,276.704 -247.352,277.448C-249.384,278.496 -250.608,279.856 -252.2,281.496C-253.344,282.456 -254.496,283.424 -255.648,284.376C-260.376,288.312 -264.928,292.456 -269.488,296.616C-271.12,298.08 -272.776,299.512 -274.448,300.928C-276.752,302.888 -278.888,304.96 -281,307.128L-282.728,308.832C-285.648,311.752 -288.472,314.768 -291.288,317.792C-291.833,318.369 -292.376,318.944 -292.944,319.544C-296.104,322.904 -299.192,326.304 -302.224,329.784C-303.24,330.928 -304.32,332.016 -305.416,333.08C-308.232,335.96 -310.592,339.12 -313.016,342.36L-314.064,343.744C-316.928,347.536 -319.776,351.344 -322.624,355.184L-323.792,356.744C-331.136,366.584 -338.112,376.504 -344.032,387.304C-345.88,390.664 -347.832,393.936 -349.888,397.144C-353.088,402.304 -355.808,407.624 -358.448,413.064C-359.616,415.472 -360.808,417.864 -361.992,420.256C-366.448,429.296 -370.712,438.256 -373.832,447.856C-374.672,450.304 -374.672,450.304 -376.272,452.704C-376.692,453.928 -377.072,455.16 -377.424,456.4C-378.21,459.112 -379.008,461.816 -379.872,464.48L-380.396,466.12C-381.072,467.88 -381.072,467.88 -382.212,470.016C-383.556,472.864 -384.364,475.672 -385.076,478.736C-385.213,479.295 -385.35,479.856 -385.491,480.432C-385.923,482.2 -386.347,483.976 -386.771,485.744C-387.2,487.528 -387.635,489.312 -388.067,491.104C-388.336,492.208 -388.603,493.32 -388.865,494.424C-389.777,498.208 -389.777,498.208 -390.673,499.096C-390.948,500.264 -391.18,501.44 -391.395,502.624C-391.529,503.35 -391.664,504.08 -391.803,504.824C-391.941,505.59 -392.08,506.352 -392.223,507.144C-393.759,515.624 -393.759,515.624 -394.703,519.144C-395.687,522.936 -396.143,526.784 -396.623,530.664C-396.773,531.872 -396.773,531.872 -396.928,533.096C-397.139,534.792 -397.348,536.488 -397.556,538.184C-397.858,540.592 -398.178,543 -398.5,545.408C-399.956,556.448 -400.772,567.408 -401.284,578.528C-401.729,587.728 -401.729,587.728 -402.668,591.728C-403.54,595.544 -403.732,599.32 -403.916,603.248C-403.95,603.954 -403.984,604.664 -404.019,605.392C-404.346,612.768 -404.384,620.112 -404.375,627.472C-404.376,628.968 -404.377,630.456 -404.379,631.952C-404.382,636.008 -404.38,640.032 -404.378,644.112C-404.376,648.504 -404.379,652.912 -404.381,657.312C-404.385,665.872 -404.384,674.432 -404.382,683.072C-404.38,690.04 -404.379,696.992 -404.38,703.952C-404.381,705.44 -404.381,705.44 -404.381,706.968C-404.381,708.984 -404.381,711.008 -404.381,713.024C-404.384,731.344 -404.381,749.744 -404.377,768.064C-404.373,784.784 -404.374,801.584 -404.378,818.304C-404.382,837.184 -404.384,855.984 -404.381,874.864C-404.381,876.872 -404.381,878.88 -404.38,880.888C-404.38,881.872 -404.38,882.864 -404.38,883.88C-404.379,890.848 -404.38,897.8 -404.382,904.76C-404.385,913.24 -404.384,921.72 -404.38,930.2C-404.378,934.528 -404.377,938.84 -404.379,943.16C-404.382,947.12 -404.381,951.072 -404.376,955C-404.375,956.432 -404.376,957.872 -404.378,959.304C-404.38,961.248 -404.378,963.192 -404.374,965.128C-404.376,965.694 -404.378,966.256 -404.38,966.84C-404.37,969.248 -404.243,971.08 -403.476,973.384C-402.172,974.672 -402.172,974.672 -400.58,975.936C-397.676,978.392 -395.252,981.024 -392.796,983.92C-391.38,985.568 -391.38,985.568 -389.076,987.392C-387.172,988.976 -385.788,990.368 -384.228,992.24C-377.804,999.776 -369.908,1006.56 -362.148,1012.72C-360.3,1014.22 -360.3,1014.22 -358.196,1016.37C-356.412,1018.38 -356.412,1018.38 -353.892,1019.02L-353.892,1020.62C-352.604,1021.8 -351.26,1022.92 -349.892,1024.02C-349.084,1024.66 -348.268,1025.31 -347.436,1025.98C-345.14,1027.78 -342.828,1029.55 -340.476,1031.29C-338.1,1033.06 -335.74,1034.86 -333.388,1036.67C-332.741,1037.17 -332.741,1037.17 -332.084,1037.67C-329.956,1039.31 -327.86,1040.98 -325.82,1042.72C-323.756,1044.4 -321.788,1045.7 -319.492,1047.02C-317.524,1048.3 -315.588,1049.62 -313.644,1050.93C-312.068,1051.98 -310.484,1053.03 -308.9,1054.09C-307.716,1054.88 -306.524,1055.67 -305.34,1056.47C-303.956,1057.38 -302.524,1058.22 -301.092,1059.03L-299.492,1058.23C-299.491,1057.22 -299.491,1056.22 -299.49,1055.18C-299.469,1010.78 -299.444,966.384 -299.398,922.384C-299.397,921.711 -299.397,921.04 -299.396,920.344C-299.381,905.704 -299.366,891.064 -299.349,876.424C-299.341,869.248 -299.333,862.104 -299.325,854.904C-299.325,854.19 -299.324,853.472 -299.323,852.744C-299.298,829.624 -299.283,806.584 -299.274,783.464C-299.264,759.704 -299.244,735.944 -299.211,712.184C-299.206,708.816 -299.201,705.456 -299.197,702.104C-299.196,701.442 -299.195,700.776 -299.194,700.096C-299.18,689.456 -299.177,678.896 -299.178,668.256C-299.179,657.536 -299.168,646.896 -299.146,636.176C-299.134,630.392 -299.127,624.576 -299.135,618.816C-299.162,596.336 -299.149,574.336 -295.495,552.096C-295.198,550.168 -294.904,548.24 -294.607,546.312C-293.599,539.712 -292.519,533.352 -290.519,526.952C-289.859,524.816 -289.263,522.664 -288.687,520.504L-288.087,518.264C-287.685,516.76 -287.287,515.248 -286.887,513.736C-285.855,509.88 -284.727,506.136 -283.271,502.456C-282.674,500.912 -282.127,499.36 -281.599,497.792C-278.887,489.848 -275.775,482.192 -272.319,474.512L-271.602,472.928C-268.978,467.144 -266.25,461.488 -263.122,455.888C-261.738,453.408 -260.418,450.896 -259.098,448.384C-257.066,444.584 -254.874,441.016 -252.354,437.504C-251.298,435.992 -251.298,435.992 -251.498,433.664C-250.706,433.4 -249.914,433.136 -249.098,432.864L-247.498,428.064C-246.706,427.8 -245.914,427.536 -245.098,427.264C-244.315,425.936 -243.538,424.6 -242.81,423.24C-241.266,420.568 -239.306,418.24 -237.346,415.864C-236.925,415.346 -236.506,414.824 -236.074,414.296C-235.226,413.248 -234.37,412.2 -233.514,411.152C-232.41,409.8 -231.306,408.432 -230.21,407.072C-227.314,403.48 -224.378,400.112 -221.09,396.832C-218.21,394.032 -218.21,394.032 -217.09,390.432C-216.579,390.218 -216.066,390.003 -215.538,389.782C-213.626,388.926 -213.626,388.926 -213.09,386.43C-212.026,385.891 -210.962,385.358 -209.89,384.83C-208.586,383.614 -207.322,382.366 -206.09,381.078C-202.202,377.11 -198.266,373.182 -193.69,369.958C-193.222,369.58 -192.754,369.202 -192.274,368.814L-192.274,367.214C-191.809,366.998 -191.346,366.782 -190.866,366.56C-189.066,365.608 -187.618,364.56 -186.034,363.288C-185.457,362.829 -184.882,362.368 -184.282,361.896C-183.669,361.406 -183.058,360.92 -182.426,360.416C-173.546,353.448 -164.346,347.376 -154.746,341.536C-152.434,340.112 -150.17,338.632 -147.906,337.136C-144.13,334.728 -140.266,332.832 -136.146,331.024C-133.05,329.648 -130.01,328.168 -126.946,326.696C-119.482,323.096 -112.066,319.72 -104.226,316.856C-103.603,316.619 -102.978,316.382 -102.338,316.139C-63.858,301.579 -22.338,296.539 19.262,298.459C20.062,299.259 20.062,299.259 20.158,300.795C20.157,301.819 20.157,301.819 20.156,302.859C20.158,303.644 20.159,304.427 20.161,305.235C20.158,306.107 20.155,306.987 20.153,307.883C20.153,308.803 20.154,309.731 20.154,310.683C20.155,313.267 20.151,315.851 20.147,318.443C20.143,321.251 20.143,324.051 20.143,326.843C20.142,331.763 20.138,336.683 20.133,341.643C20.124,348.963 20.12,356.283 20.118,363.643C20.113,375.963 20.105,388.283 20.095,400.603C20.08,418.203 20.073,435.803 20.067,453.403C20.064,460.459 20.061,467.483 20.059,474.523C20.058,475.307 20.058,476.091 20.058,476.899C20.051,495.539 20.041,514.259 20.031,532.899C20.031,533.715 20.03,534.531 20.03,535.379C20.02,554.419 20.009,573.539 19.996,592.579C19.995,593.395 19.994,594.219 19.994,595.067C19.991,599.203 19.988,603.307 19.985,607.467C19.985,608.283 19.984,609.099 19.984,609.939C19.983,611.587 19.981,613.235 19.98,614.883C19.962,642.083 19.949,669.363 19.941,696.483C19.94,700.323 19.939,704.171 19.938,708.003C19.938,709.139 19.938,709.139 19.937,710.299C19.934,722.459 19.924,734.699 19.912,746.859C19.9,759.099 19.893,771.339 19.893,783.579C19.892,790.859 19.887,798.139 19.876,805.419C19.869,810.275 19.867,815.099 19.871,819.979C19.872,822.747 19.871,825.523 19.864,828.299C19.856,831.283 19.859,834.267 19.864,837.259C19.86,838.123 19.855,838.987 19.851,839.883C19.646,846.403 19.646,846.403 22.459,851.963C44.539,851.811 71.739,846.219 91.659,836.843C94.259,835.667 96.907,834.635 99.563,833.587C106.963,830.651 114.123,827.435 121.083,823.587C123.267,822.371 125.475,821.195 127.683,820.011C143.523,811.371 158.483,800.491 171.683,788.171C173.483,786.507 175.307,784.891 177.155,783.291C181.563,779.443 185.475,775.211 189.315,770.891C190.539,769.531 191.763,768.171 193.011,766.827C200.275,758.931 206.611,750.267 212.851,741.547C213.315,740.894 213.779,740.243 214.259,739.571C216.507,736.315 218.259,733.435 219.251,729.571L220.851,729.571C222.051,727.939 222.051,727.939 223.203,725.875C223.606,725.188 224.011,724.499 224.427,723.795C225.707,721.483 226.883,719.147 228.059,716.779C228.67,715.587 228.67,715.587 229.291,714.363C250.091,673.403 257.691,631.163 257.851,585.563C257.858,583.371 257.866,581.179 257.875,578.979C257.894,573.659 257.91,568.339 257.924,562.979C257.941,556.731 257.962,550.499 257.984,544.259C258.022,533.059 258.056,521.859 258.088,510.659C258.12,499.939 258.153,489.139 258.188,478.419C258.192,477.435 258.192,477.435 258.195,476.427C258.204,473.779 258.213,471.131 258.221,468.483C258.26,456.803 258.297,445.203 258.333,433.523C258.339,431.683 258.345,429.835 258.351,427.995C258.552,364.715 258.475,301.595 258.297,238.395C258.29,235.827 258.283,233.267 258.276,230.699C258.273,229.747 258.273,229.747 258.271,228.771C258.242,218.291 258.222,207.891 258.206,197.411C258.188,186.611 258.162,175.731 258.127,164.931C258.106,158.299 258.092,151.651 258.087,145.011C258.082,140.499 258.069,135.971 258.05,131.491C258.038,128.891 258.032,126.291 258.034,123.691C258.035,120.875 258.022,118.067 258.005,115.291C258.009,114.467 258.013,113.643 258.017,112.795C258.009,112.044 258.002,111.291 257.994,110.515C257.992,109.867 257.991,109.219 257.989,108.547C257.611,106.339 256.757,105.235 255.285,103.579C253.941,102.635 253.941,102.635 252.445,101.947C251.9,101.679 251.357,101.412 250.797,101.139C249.949,100.738 249.949,100.738 249.085,100.331C248.532,100.061 247.981,99.79 247.413,99.507C244.805,98.235 242.173,97.027 239.501,95.907C237.341,94.971 235.365,93.971 233.341,92.779C230.685,91.275 228.061,90.091 225.181,89.083C222.677,88.155 220.245,87.091 217.797,86.035C213.261,84.075 208.677,82.203 204.117,80.387C203.213,80.022 203.213,80.022 202.301,79.65C180.941,71.01 158.621,62.77 135.901,58.45C133.253,57.902 130.645,57.21 128.029,56.53C120.589,54.634 113.069,53.25 105.549,51.898C104.221,51.656 102.901,51.414 101.573,51.173C98.437,50.602 95.301,50.037 92.133,49.485C90.757,49.239 89.381,48.986 88.005,48.73C81.141,47.498 74.245,46.858 67.285,46.194C65.213,45.998 63.141,45.796 61.069,45.594C57.517,45.249 53.957,44.92 50.429,44.602C48.877,44.461 47.325,44.318 45.773,44.173C33.213,43.005 20.733,42.533 8.173,42.597C6.837,42.601 6.837,42.601 5.469,42.604C-29.491,42.717 -63.811,45.132 -98.531,51.564L-98.4,50.56ZM300,130.56C298.784,132.992 299.112,135.52 299.136,138.192C299.138,138.812 299.14,139.432 299.143,140.072C299.148,141.424 299.154,142.776 299.163,144.12C299.184,147.784 299.19,151.448 299.197,155.08C299.198,155.837 299.2,156.592 299.201,157.376C299.211,164.832 299.13,172.256 299.026,179.696C299.008,181.024 298.99,182.344 298.972,183.672C298.945,185.712 298.917,187.76 298.888,189.8C298.316,231.32 298.316,273 298.368,314.6C298.381,324.76 298.387,334.92 298.392,345.16C298.401,363.32 298.413,381.48 298.428,399.64C298.428,400.177 298.429,400.712 298.429,401.264C298.439,413.824 298.451,426.464 298.464,439.024C298.464,439.57 298.465,440.112 298.465,440.68C298.468,442.88 298.47,445.088 298.472,447.288C298.473,448.392 298.474,449.488 298.475,450.592C298.477,451.688 298.478,452.792 298.479,453.888C298.498,472.608 298.511,491.328 298.518,510.048C298.523,521.168 298.533,532.288 298.55,543.408C298.561,551.008 298.566,558.608 298.566,566.208C298.567,570.576 298.57,574.928 298.58,579.328C298.628,600.528 298.517,621.488 295.204,642.448C295.072,643.344 294.94,644.24 294.804,645.16C294.175,649.288 293.428,653.104 292.004,657.08C291.665,658.776 291.35,660.48 291.052,662.184C287.388,681.544 280.492,700.584 272.492,718.504C271.864,719.92 271.864,719.92 271.22,721.368C268.204,728.04 268.204,728.04 266.388,729.848C265.888,731.048 265.428,732.272 264.988,733.496C263.62,737.024 261.932,739.864 259.756,742.936C257.676,746.136 255.956,749.528 254.228,752.936C252.908,755.488 251.668,757.488 249.588,759.448C248.825,760.664 248.092,761.896 247.388,763.144C245.396,766.528 243.22,769.6 240.772,772.664C239.26,774.56 237.78,776.48 236.308,778.408C225.028,793.128 225.028,793.128 221.508,796.008C218.004,798.824 215.22,802.248 212.388,805.768C209.876,808.84 207.276,811.176 203.988,813.44C201.924,815.024 200.188,816.832 198.364,818.68C196.892,820.072 195.404,821.456 193.916,822.832C193.173,823.52 192.428,824.208 191.66,824.92C189.868,826.432 188.42,827.264 186.364,828.288C185.3,829.352 184.228,830.424 183.164,831.488C181.356,832.888 179.484,834.184 177.612,835.488C174.308,837.8 171.1,840.16 167.932,842.688C163.484,845.888 158.812,848.608 154.012,851.168C151.156,852.712 148.428,854.352 145.772,856.208C142.572,858.256 139.26,859.84 135.852,861.432C135.179,861.747 134.508,862.062 133.812,862.384C131.876,863.288 129.94,864.184 128.004,865.08C126.644,865.71 126.644,865.71 125.252,866.352C123.244,867.272 121.228,868.184 119.204,869.08C118.38,869.447 117.564,869.814 116.716,870.192C112.836,871.848 108.844,873.2 104.876,874.576C104.052,874.859 103.236,875.143 102.388,875.432C100.004,876.248 97.62,877.064 95.228,877.872C94.649,878.068 94.068,878.265 93.476,878.467C59.236,889.987 24.196,893.987 -12.124,893.987C-13.26,893.988 -13.26,893.988 -14.412,893.989C-19.412,893.946 -19.412,893.946 -20.324,893.037C-20.403,891.829 -20.426,890.613 -20.427,889.397C-20.431,888.205 -20.431,888.205 -20.435,886.997C-20.434,886.117 -20.433,885.229 -20.432,884.317C-20.434,883.381 -20.436,882.453 -20.438,881.493C-20.443,878.877 -20.444,876.269 -20.444,873.653C-20.445,870.821 -20.45,867.989 -20.455,865.173C-20.462,860.197 -20.467,855.253 -20.47,850.293C-20.474,842.901 -20.483,835.493 -20.492,828.133C-20.508,815.733 -20.521,803.253 -20.532,790.853C-20.546,773.893 -20.566,756.933 -20.587,739.893C-20.597,731.989 -20.607,724.053 -20.616,716.213C-20.617,715.422 -20.618,714.629 -20.619,713.813C-20.642,694.933 -20.662,676.133 -20.682,657.253C-20.683,656.013 -20.683,656.013 -20.684,654.757C-20.698,641.397 -20.712,627.957 -20.726,614.597C-20.739,602.037 -20.752,589.477 -20.765,576.997C-20.766,575.757 -20.766,575.757 -20.768,574.501C-20.787,555.701 -20.808,536.901 -20.831,518.101C-20.832,516.917 -20.832,516.917 -20.833,515.709C-20.843,507.829 -20.853,499.949 -20.862,492.029C-20.884,475.069 -20.903,458.109 -20.917,441.149C-20.928,428.749 -20.941,416.429 -20.957,404.029C-20.967,396.677 -20.974,389.309 -20.978,381.949C-20.981,377.045 -20.987,372.109 -20.995,367.229C-20.999,364.429 -21.003,361.629 -21.002,358.829C-21.003,355.821 -21.008,352.821 -21.015,349.789C-21.014,348.909 -21.013,348.021 -21.011,347.109C-21.016,345.917 -21.016,345.917 -21.02,344.709C-21.021,344.02 -21.021,343.333 -21.022,342.621C-20.952,341.061 -20.952,341.061 -21.926,340.269C-44.406,340.13 -67.446,345.869 -88.326,353.869C-89.15,354.184 -89.15,354.184 -89.99,354.506C-100.87,358.61 -100.87,358.61 -111.19,363.946C-113.126,365.09 -113.126,365.09 -115.974,366.09C-120.694,367.794 -124.854,370.49 -129.094,373.09C-129.958,373.615 -130.822,374.138 -131.71,374.682C-134.31,376.274 -136.902,377.882 -139.494,379.49C-140.31,379.997 -141.126,380.506 -141.966,381.026C-142.734,381.508 -143.502,381.994 -144.294,382.49C-144.971,382.915 -145.646,383.338 -146.342,383.778C-148.422,385.178 -150.334,386.714 -152.294,388.29C-153.31,389.052 -154.326,389.81 -155.342,390.562C-155.888,390.967 -156.438,391.37 -156.998,391.786C-158.126,392.618 -159.254,393.45 -160.382,394.282C-163.542,396.626 -166.358,399.042 -169.102,401.89C-170.438,402.954 -171.766,404.026 -173.102,405.09C-174.446,406.418 -175.774,407.746 -177.102,409.09C-177.801,409.78 -178.502,410.466 -179.222,411.178C-184.286,416.194 -189.062,421.338 -193.622,426.858C-195.526,429.106 -195.526,429.106 -197.374,430.914C-199.71,433.306 -201.742,435.81 -203.774,438.458C-204.137,438.923 -204.501,439.386 -204.878,439.866C-206.878,442.218 -206.878,442.218 -207.526,445.106C-208.318,445.37 -209.11,445.634 -209.926,445.906C-211.478,448.066 -211.478,448.066 -212.974,450.706C-214.838,453.842 -216.71,456.946 -218.774,459.986C-224.446,468.466 -228.854,477.346 -233.094,486.546C-233.884,488.218 -234.71,489.866 -235.55,491.506C-245.47,511.186 -251.55,533.266 -254.67,555.026C-254.877,556.442 -254.877,556.442 -255.088,557.89C-255.376,559.866 -255.664,561.842 -255.952,563.818L-256.371,566.674C-256.558,567.962 -256.558,567.962 -256.749,569.274C-257.121,571.546 -257.121,571.546 -257.528,573.082C-257.924,574.754 -258.081,576.29 -258.17,578.01C-258.203,578.651 -258.236,579.29 -258.27,579.954C-258.301,580.649 -258.332,581.346 -258.364,582.058C-258.397,582.799 -258.431,583.538 -258.466,584.306C-258.852,593.586 -258.84,602.866 -258.839,612.146C-258.841,614.178 -258.844,616.218 -258.848,618.25C-258.855,623.218 -258.858,628.17 -258.86,633.13C-258.862,639.09 -258.869,645.05 -258.876,650.97C-258.893,665.37 -258.901,679.77 -258.908,694.09C-258.912,700.898 -258.916,707.69 -258.92,714.49C-258.934,737.77 -258.946,761.13 -258.952,784.41C-258.953,785.866 -258.953,787.33 -258.954,788.786C-258.954,789.51 -258.954,790.234 -258.954,790.978C-258.955,794.642 -258.956,798.314 -258.957,802.018C-258.957,802.746 -258.957,803.474 -258.958,804.226C-258.964,827.906 -258.983,851.506 -259.009,875.186C-259.036,900.226 -259.052,925.266 -259.054,950.226C-259.055,952.97 -259.055,955.714 -259.056,958.466C-259.056,959.141 -259.056,959.818 -259.056,960.514C-259.058,971.394 -259.07,982.274 -259.087,993.154C-259.103,1004.03 -259.107,1014.99 -259.1,1025.87C-259.096,1032.36 -259.1,1038.83 -259.118,1045.31C-259.13,1050.15 -259.125,1054.99 -259.114,1059.79C-259.112,1061.75 -259.116,1063.72 -259.125,1065.68C-259.137,1068.34 -259.129,1070.99 -259.117,1073.65C-259.125,1074.42 -259.133,1075.19 -259.142,1075.99C-259.106,1079.41 -259.038,1081.24 -257.182,1084.23C-255.662,1085.64 -254.502,1086.55 -252.614,1087.38L-250.942,1088.15C-250.038,1088.56 -250.038,1088.56 -249.11,1088.98C-247.726,1089.66 -246.342,1090.34 -244.958,1091.03C-244.278,1091.37 -243.598,1091.71 -242.902,1092.05C-241.11,1092.98 -241.11,1092.98 -239.11,1094.23C-236.574,1095.69 -233.934,1096.69 -231.206,1097.75C-227.238,1099.32 -223.35,1101.05 -219.526,1102.98C-216.822,1104.31 -214.078,1105.41 -211.286,1106.51C-209.054,1107.4 -206.846,1108.34 -204.638,1109.29C-187.198,1116.55 -168.878,1122.33 -150.718,1127.37C-150.06,1127.55 -149.406,1127.74 -148.726,1127.93C-133.766,1132.15 -118.726,1135.63 -103.526,1138.57C-102.906,1138.7 -102.286,1138.82 -101.654,1138.95C-99.486,1139.38 -97.318,1139.76 -95.134,1140.12C-94.302,1140.26 -93.478,1140.4 -92.622,1140.54C-91.766,1140.68 -90.91,1140.82 -90.022,1140.97C-89.174,1141.11 -88.318,1141.26 -87.446,1141.4C-79.654,1142.7 -71.846,1143.71 -64.006,1144.57C-63.062,1144.67 -62.118,1144.78 -61.142,1144.89C-59.286,1145.09 -57.438,1145.29 -55.582,1145.5C-54.158,1145.65 -52.726,1145.82 -51.302,1145.99C-19.142,1149.93 13.738,1148.63 46.298,1146.37C47.01,1146.33 47.722,1146.28 48.45,1146.23C49.103,1146.18 49.754,1146.13 50.426,1146.08C51.282,1146.02 51.282,1146.02 52.146,1145.96C53.834,1145.8 53.834,1145.8 56.05,1144.97C58.066,1144.83 60.082,1144.71 62.098,1144.62C71.138,1144.15 80.498,1143.65 89.298,1141.43C92.122,1140.76 94.978,1140.26 97.858,1139.73C107.618,1137.92 117.298,1135.74 127.058,1133.56C129.186,1133.08 131.314,1132.62 133.442,1132.14C159.042,1126.42 184.562,1117.74 208.802,1107.58C211.186,1106.58 213.578,1105.61 215.978,1104.62C224.218,1101.25 232.298,1097.78 240.218,1093.66C244.202,1091.61 248.298,1089.74 252.378,1087.86C255.338,1086.49 258.146,1085.04 260.938,1083.3C265.706,1080.44 270.458,1077.69 275.498,1075.22C279.034,1073.49 282.266,1071.58 285.498,1069.33C287.242,1068.15 289.01,1067.08 290.826,1066.02C295.922,1062.98 300.826,1059.69 305.786,1056.42C307.362,1055.37 308.946,1054.31 310.522,1053.26C318.122,1048.18 325.722,1043.1 332.922,1037.5C335.298,1035.64 337.658,1033.82 340.17,1032.14L340.17,1030.54C340.712,1030.38 341.25,1030.22 341.81,1030.05C345.01,1028.55 347.314,1026.39 349.89,1024.04C350.954,1023.1 352.01,1022.16 353.074,1021.22C353.593,1020.76 354.114,1020.31 354.642,1019.83C357.274,1017.55 360.034,1015.44 362.802,1013.33L364.13,1012.14L364.13,1010.54C364.559,1010.36 364.986,1010.18 365.426,1009.99C368.738,1008.16 371.418,1005.65 374.066,1002.99C376.154,1000.9 378.338,999.052 380.634,997.204C380.992,996.852 381.35,996.5 381.722,996.14L381.722,994.54C382.381,994.272 382.381,994.272 383.05,993.998C385.482,992.622 387.29,990.782 389.234,988.806C389.642,988.397 390.05,987.99 390.474,987.566C391.338,986.702 392.202,985.83 393.058,984.966C394.354,983.654 395.658,982.35 396.962,981.046C404.666,974.014 404.666,974.014 410.482,965.606C411.29,964.126 411.29,964.126 413.69,963.326C414.858,962.038 415.97,960.694 417.042,959.326C419.954,955.67 422.97,952.174 426.162,948.766C427.474,947.438 427.474,947.438 427.306,945.742C428.098,945.478 428.89,945.214 429.706,944.942C430.479,943.83 431.242,942.718 431.962,941.566C433.746,938.862 435.89,936.43 437.954,933.942C441.386,929.758 444.682,925.542 447.714,921.062C449.994,917.718 452.474,914.51 454.946,911.302C455.358,910.764 455.77,910.23 456.194,909.67C456.742,908.963 456.742,908.963 457.298,908.238C458.586,906.374 459.69,904.43 460.802,902.454C462.394,899.71 464.154,897.07 465.898,894.374C469.658,888.598 473.322,882.774 476.938,876.854C477.364,876.158 477.786,875.462 478.226,874.742C481.154,869.926 483.874,864.982 486.546,860.022L487.37,858.502C491.194,851.422 494.826,844.262 498.17,836.982C499.258,834.702 500.474,832.606 501.778,830.446C502.258,829.342 502.706,828.222 503.13,827.094C504.642,823.206 506.322,819.398 508.026,815.574C516.026,797.654 522.346,779.334 528.266,760.614C528.881,758.694 529.514,756.79 530.162,754.886C551.122,692.246 556.722,622.886 551.842,548.486C551.793,547.808 551.744,547.134 551.694,546.43C551.214,539.91 550.678,533.47 549.39,527.07C548.769,523.798 548.382,520.51 547.958,517.23C546.718,507.63 545.198,498.11 543.342,488.51C543.047,486.99 543.047,486.99 542.747,485.446C541.691,480.118 540.507,474.806 539.155,469.606C538.635,467.558 538.147,465.51 537.683,463.454C535.387,453.454 532.635,443.614 529.699,433.774C529,431.398 528.323,429.022 527.659,426.638C527.446,425.88 527.234,425.126 527.015,424.342C526.618,422.918 526.224,421.502 525.831,420.078C524.743,416.222 523.439,412.646 521.799,408.958C521.302,407.646 520.815,406.326 520.351,405.006C517.135,396.046 513.839,387.246 510.031,378.526C509.403,377.078 508.791,375.63 508.215,374.158C504.695,365.438 500.319,357.038 496.055,348.718C495.183,346.982 494.319,345.238 493.463,343.494C492.767,342.11 492.063,340.726 491.367,339.342C491.11,338.837 490.853,338.334 490.588,337.814C483.084,323.094 474.668,309.014 465.788,295.094C465.002,293.846 464.228,292.598 463.452,291.342C460.484,286.566 457.252,282.062 453.852,277.582C452.124,275.278 450.54,272.934 448.964,270.526C448.436,270.79 447.908,271.054 447.364,271.326C447.366,271.851 447.368,272.374 447.37,272.918C447.409,284.358 447.359,295.798 447.189,307.238C446.654,343.958 446.494,380.758 446.513,417.638C446.514,419.478 446.515,421.318 446.515,423.15C446.524,441.31 446.542,459.47 446.562,477.63C446.568,483.446 446.574,489.23 446.58,495.07C446.581,496.03 446.581,496.03 446.582,497.006C446.593,507.726 446.601,518.446 446.606,529.166C446.61,535.694 446.616,542.206 446.626,548.766C446.633,553.222 446.637,557.646 446.639,562.126C446.64,564.67 446.643,567.214 446.648,569.766C446.673,581.286 446.503,592.806 446.044,604.246C445.848,609.198 445.726,614.166 445.765,619.126C445.763,621.694 445.589,624.238 445.379,626.798C445.337,627.312 445.295,627.83 445.251,628.358C445.111,630.03 444.963,631.702 444.814,633.374C444.762,633.96 444.709,634.542 444.655,635.15C441.815,666.51 436.751,698.35 426.575,727.95C426.153,729.23 425.735,730.51 425.311,731.79C422.199,741.23 418.919,750.67 415.391,759.95C415.083,760.766 415.083,760.766 414.77,761.59C412.386,767.87 409.698,773.91 406.61,779.91C404.506,784.038 402.554,788.23 400.57,792.39C392.25,809.83 392.25,809.83 386.89,817.43C385.546,819.51 384.506,821.694 383.402,823.91C382.29,825.862 381.122,827.79 379.954,829.71C379.312,830.774 378.674,831.83 378.026,832.894C377.559,833.665 377.559,833.665 377.082,834.454C375.898,836.414 374.722,838.39 373.554,840.366C371.226,844.246 369.018,847.902 365.802,851.086C365.057,852.206 364.314,853.318 363.586,854.446C361.978,856.806 360.186,859.022 358.426,861.27C357.194,862.846 355.994,864.43 354.81,866.038C351.114,870.998 347.25,875.798 343.45,880.678C342.873,881.41 342.298,882.142 341.706,882.894C340.018,884.966 338.146,886.782 336.25,888.678C335.59,889.47 334.93,890.262 334.25,891.078C332.354,893.35 330.346,895.382 328.25,897.478C327.01,898.902 325.794,900.342 324.57,901.782C323.202,903.358 321.722,904.806 320.25,906.278C319.532,907.158 318.818,908.046 318.098,908.926C315.682,911.79 312.922,913.934 309.938,916.174C307.858,917.782 306.058,919.566 304.25,921.47C298.946,926.926 293.37,931.95 287.21,936.43C285.538,937.694 284.122,939.142 282.666,940.646C279.458,943.382 275.986,945.726 272.506,948.102C270.914,949.262 269.634,950.454 268.266,951.846C266.93,952.646 265.602,953.446 264.266,954.246C263.719,954.798 263.719,954.798 263.162,955.358C256.53,961.942 247.242,966.398 239.242,971.118C236.682,972.638 234.202,974.238 231.738,975.918C229.09,977.71 226.45,979.19 223.498,980.494C221.618,981.462 221.618,981.462 219.37,983.238C215.618,985.958 211.498,987.814 207.29,989.766C206.474,990.151 205.658,990.536 204.818,990.934C199.698,993.342 194.578,995.726 189.378,998.046C187.314,999.006 187.314,999.006 185.282,1000.27C183.602,1001.27 182.09,1001.98 180.258,1002.62C178.194,1003.36 176.218,1004.14 174.21,1005.02C172.194,1005.87 170.274,1006.61 168.21,1007.27C163.49,1008.82 158.85,1010.53 154.13,1012.22C124.85,1022.86 94.77,1029.82 63.73,1034.3C60.682,1034.75 57.634,1035.21 54.61,1035.72C37.81,1038.48 20.93,1039.29 3.89,1038.99C1.746,1035 2.09,1030.99 2.13,1026.51C2.133,1025.29 2.133,1025.29 2.137,1024.05C2.146,1021.47 2.166,1018.89 2.186,1016.3C2.194,1014.55 2.201,1012.79 2.208,1011.04C2.225,1006.74 2.252,1002.48 2.286,998.158C3.166,998.161 4.038,998.164 4.942,998.167C22.302,998.208 39.422,997.223 56.702,994.959C57.518,994.853 58.326,994.747 59.166,994.638C80.286,991.798 101.086,986.478 121.486,980.558C122.016,980.406 122.542,980.253 123.094,980.096C128.006,978.672 132.774,977.072 137.494,975.112C140.766,973.8 144.07,972.608 147.414,971.408C157.814,967.6 167.654,963.168 177.494,958.128C179.006,957.36 180.526,956.592 182.046,955.824L183.806,954.928C185.494,954.12 185.494,954.12 187.366,953.416C190.07,952.288 192.574,950.848 195.102,949.376C195.826,948.96 195.826,948.96 196.566,948.536C198.63,947.344 200.678,946.144 202.718,944.912C205.134,943.472 207.598,942.104 210.054,940.728C214.238,938.36 218.214,935.816 222.134,933C225.254,930.784 228.534,928.832 231.814,926.824C232.958,926.1 234.054,925.32 235.15,924.52L235.15,922.92C235.76,922.689 236.374,922.459 236.998,922.22C239.27,921.348 239.27,921.348 241.55,919.724L241.55,918.124C242.134,917.918 242.718,917.712 243.318,917.5C245.63,916.492 247.294,915.316 249.246,913.724C251.182,912.164 253.07,910.708 255.15,909.324L255.15,907.724C255.588,907.533 256.022,907.342 256.478,907.145C258.822,905.873 260.71,904.281 262.75,902.577C266.998,899.033 266.998,899.033 269.022,897.601C269.46,897.248 269.894,896.894 270.35,896.529L270.35,894.929C271.142,894.665 271.934,894.401 272.75,894.129L272.75,892.529C273.222,892.309 273.694,892.09 274.182,891.864C278.646,889.504 281.91,885.792 285.062,881.944C286.406,880.44 287.838,879.176 289.382,877.872C293.878,874.048 297.622,869.552 301.462,865.152C304.486,861.672 307.574,858.344 310.982,855.232C312.11,854.224 312.11,854.224 311.934,852.584C312.726,852.32 313.518,852.056 314.334,851.784C315.902,849.912 315.902,849.912 317.438,847.632C319.254,845.048 321.046,842.544 323.134,840.184C324.982,838.296 324.982,838.296 324.734,835.784C325.526,835.52 326.318,835.256 327.134,834.984C327.966,833.672 328.758,832.336 329.534,830.984C330.79,829.304 332.07,827.648 333.366,826C334.478,824.648 334.478,824.648 334.334,822.984C335.126,822.72 335.918,822.456 336.734,822.184C337.534,820.872 338.334,819.552 339.054,818.2C339.934,816.584 340.886,815.04 341.886,813.488C343.302,811.248 344.622,808.968 345.886,806.64C347.198,804.248 348.59,801.984 350.134,799.744C352.39,796.416 354.406,792.984 356.382,789.504C356.673,788.995 356.964,788.488 357.262,787.96C359.358,784.224 361.15,780.392 362.894,776.52C363.91,774.28 364.966,772.072 366.046,769.864C370.606,760.504 374.766,751.224 378.366,741.464C378.786,740.344 379.206,739.216 379.63,738.096C379.828,737.566 380.027,737.04 380.232,736.496C380.656,735.368 381.08,734.24 381.504,733.112C382.344,730.84 383.16,728.552 383.968,726.272C384.161,725.736 384.356,725.2 384.555,724.648C401.835,676.568 405.755,625.448 405.675,575.048C405.67,572.224 405.669,569.392 405.668,566.568C405.666,561.696 405.661,556.808 405.654,551.928C405.644,544.864 405.639,537.768 405.635,530.728C405.63,519.288 405.621,507.768 405.61,496.328C405.609,495.644 405.609,494.96 405.608,494.256C405.603,489.4 405.599,484.576 405.594,479.696C405.588,474.136 405.583,468.576 405.577,462.976C405.576,461.944 405.576,461.944 405.575,460.896C405.564,449.456 405.556,438.016 405.551,426.496C405.547,419.456 405.541,412.416 405.531,405.376C405.524,400.552 405.52,395.696 405.519,390.896C405.518,388.12 405.515,385.352 405.509,382.576C405.47,362.256 405.47,362.256 406.3,353.376C406.556,351.384 406.556,351.384 405.594,349.784C405.525,348.08 405.511,346.376 405.519,344.672C405.522,343.876 405.522,343.876 405.524,343.064C405.53,341.28 405.542,339.496 405.554,337.704C405.559,336.424 405.564,335.152 405.569,333.872C405.58,331.12 405.593,328.36 405.607,325.632C405.629,321.272 405.643,316.912 405.655,312.592C405.659,311.104 405.663,309.608 405.667,308.12C405.669,307.373 405.671,306.624 405.673,305.856C405.702,295.696 405.739,285.536 405.792,275.456C405.827,268.616 405.852,261.776 405.863,254.976C405.869,251.352 405.882,247.736 405.908,244.096C405.933,240.688 405.943,237.28 405.942,233.856C405.944,232.608 405.952,231.36 405.965,230.112C405.983,228.4 405.981,226.696 405.974,224.992C405.978,224.04 405.982,223.08 405.986,222.096C405.345,217.808 402.834,214.88 399.746,211.936C397.274,209.544 395.034,207.04 392.85,204.384C391.386,202.832 389.89,201.48 388.274,200.088C384.49,196.824 381.002,193.296 377.474,189.768C371.786,183.92 371.786,183.92 365.554,178.648L363.954,178.648C363.69,177.856 363.426,177.064 363.154,176.248C361.754,174.976 361.754,174.976 360.002,173.752C356.386,171.048 353.114,168.096 349.842,164.952C347.93,163.4 346.274,162.592 343.954,161.816L343.954,160.216C342.77,159.136 342.77,159.136 341.202,158.064C338.914,156.408 336.666,154.728 334.45,152.96C330.626,149.976 326.722,147.112 322.77,144.24C322.125,143.766 321.482,143.296 320.818,142.8C320.21,142.359 319.602,141.92 318.978,141.464C318.429,141.064 317.882,140.664 317.314,140.248C315.97,139.24 315.97,139.24 314.322,139.384L314.322,137.784C312.578,136.504 312.578,136.504 310.418,135.288C309.694,134.856 308.97,134.424 308.226,133.984C306.442,132.864 306.442,132.864 304.722,132.992L304.722,131.392C303.138,131.128 301.554,130.864 299.922,130.592L300,130.56Z" style="fill:rgb(0,89,154);fill-rule:nonzero;stroke:rgb(0,89,154);stroke-width:37.32px;"/>
        </g>
        <g transform="matrix(1.08363,0,0,1.37916,-946.196,-132.039)">
            <g transform="matrix(166.637,0,0,166.637,2135.83,278.687)">
            </g>
            <text x="817.546px" y="278.687px" style="font-family:'ErasITC-Bold', 'Eras Bold ITC';font-size:166.637px;">Transformation</text>
        </g>
        <g transform="matrix(0.644373,0,0,0.820111,-214.678,-67.6728)">
            <g transform="matrix(166.637,0,0,166.637,2019.92,573.052)">
            </g>
            <text x="655.743px" y="573.052px" style="font-family:'FranklinGothic-Book', 'Franklin Gothic Book';font-size:166.637px;fill:rgb(0,89,154);">LEADERS PODCAS<tspan x="1939.04px " y="573.052px ">T</tspan></text>
        </g>
        <g transform="matrix(1.09844,0,0,0.617367,-745.226,55.2963)">
            <rect x="626.565" y="488.236" width="217.507" height="18.568" style="fill:rgb(0,89,154);"/>
        </g>
        <g transform="matrix(1.14099,0,0,0.617367,396.906,55.2963)">
            <rect x="626.565" y="488.236" width="217.507" height="18.568" style="fill:rgb(0,89,154);"/>
        </g>
        <g transform="matrix(1,0,0,1.27273,508.116,2.16427)">
            <g transform="matrix(107.376,0,0,107.376,914.26,121.9)">
            </g>
            <text x="830.792px" y="121.9px" style="font-family:'FranklinGothic-Book', 'Franklin Gothic Book';font-size:107.376px;"></text>
        </g>
    </g>
</svg>
