<?xml version="1.0" encoding="UTF-8"?>
<svg id="Layer_1" data-name="Layer 1" xmlns="http://www.w3.org/2000/svg" viewBox="0 0 720 216">
  <defs>
    <style>
      .cls-1 {
        fill: #25e2cc;
      }

      .cls-1, .cls-2 {
        stroke-width: 0px;
      }

      .cls-2 {
        fill: #fff;
      }
    </style>
  </defs>
  <rect class="cls-1" x="533.56" y="56.16" width="45.09" height="22.55" rx="11.27" ry="11.27"/>
  <path class="cls-2" d="M56.45,118.28c0-17.56,14.28-31.31,33.15-31.31,11.92,0,18.61,4.19,22.14,6.68l-6.94,12.97c-2.75-1.83-6.94-4.06-13.23-4.06-10.48,0-17.56,6.55-17.56,15.72s6.94,15.72,17.3,15.72c6.68,0,10.74-2.23,13.5-4.06l6.81,12.84c-3.67,2.36-10.09,6.81-22.01,6.81-19.26,0-33.15-13.63-33.15-31.31Z"/>
  <path class="cls-2" d="M114.58,118.28c0-17.82,14.54-31.31,32.62-31.31s32.62,13.5,32.62,31.31-14.54,31.31-32.62,31.31-32.62-13.5-32.62-31.31ZM162.54,118.28c0-8.65-6.55-15.72-15.33-15.72s-15.33,7.08-15.33,15.72,6.68,15.72,15.33,15.72,15.33-6.94,15.33-15.72Z"/>
  <path class="cls-2" d="M250.15,115.14v33.28h-17.16v-30.92c0-9.17-5.37-15.07-13.23-15.07-8.65,0-14.02,6.55-14.02,14.54v31.45h-17.16v-60.27h12.32l.65,10.22c3.54-6.29,11.14-11.4,22.14-11.4,16.12,0,26.47,11.01,26.47,28.17Z"/>
  <path class="cls-2" d="M258.11,118.28c0-17.56,14.28-31.31,33.15-31.31,11.92,0,18.61,4.19,22.14,6.68l-6.94,12.97c-2.75-1.83-6.94-4.06-13.23-4.06-10.48,0-17.56,6.55-17.56,15.72s6.94,15.72,17.3,15.72c6.68,0,10.74-2.23,13.5-4.06l6.81,12.84c-3.67,2.36-10.09,6.81-22.01,6.81-19.26,0-33.15-13.63-33.15-31.31Z"/>
  <path class="cls-2" d="M377.56,123h-44.29c1.97,6.94,8.65,12.19,18.08,12.19,8.78,0,13.36-4.06,15.98-6.16l7.08,12.32c-3.67,3.28-11.14,8.25-24.9,8.25-19.13,0-33.15-13.63-33.15-31.31s12.97-31.31,31.45-31.31,30,13.36,30,31.45c0,2.23-.26,4.59-.26,4.59ZM333.41,111.99h28.04c-.79-6.81-6.16-11.4-12.97-11.4-7.47,0-13.1,3.93-15.07,11.4Z"/>
  <path class="cls-2" d="M448.02,115.14v33.28h-17.16v-30.92c0-9.17-5.37-15.07-13.23-15.07-8.65,0-14.02,6.55-14.02,14.54v31.45h-17.16v-60.27h12.32l.65,10.22c3.54-6.29,11.14-11.4,22.14-11.4,16.12,0,26.47,11.01,26.47,28.17Z"/>
  <path class="cls-2" d="M550.84,87.49l-1.44,17.03c-1.7-.66-3.28-1.18-6.03-1.18-9.56,0-15.46,6.29-15.46,14.81v30.27h-17.16v-60.27h14.28l.66,11.79c2.1-7.34,9.56-12.97,19.92-12.97,1.83,0,3.67.13,5.24.52Z"/>
  <path class="cls-2" d="M558.8,88.15h17.16v60.27h-17.16v-60.27Z"/>
  <path class="cls-2" d="M626.71,148.42l-12.58-19.13-12.58,19.13h-19.65l21.62-30.27-20.57-30h19.92l11.66,18.47,12.19-18.47h19.52l-21.36,29.61,22.01,30.66h-20.18Z"/>
  <g>
    <polygon class="cls-2" points="652.36 93.25 652.36 88.98 650.55 88.98 650.55 88.27 655.04 88.27 655.04 88.98 653.23 88.98 653.23 93.25 652.36 93.25"/>
    <polygon class="cls-2" points="661.59 93.25 661.58 88.27 660.87 88.27 658.7 91.68 656.48 88.27 655.77 88.27 655.77 93.25 656.6 93.25 656.6 89.82 658.48 92.66 658.88 92.66 660.75 89.75 660.76 93.25 661.59 93.25"/>
  </g>
  <path class="cls-2" d="M498.12,130.86c-1.57.92-4.85,3.28-9.96,3.28-6.16,0-10.61-2.62-10.61-9.7v-21.88h22.4v-14.41h-22.4v-20.7h-16.64v20.73h-9.4c5.64,6.95,8.88,16.23,8.88,26.97h0v11.01c0,15.07,9.04,23.45,23.85,23.45,11.4,0,17.43-4.32,19.78-6.03l-5.9-12.71Z"/>
  <circle class="cls-2" cx="567.38" cy="67.43" r="11.27"/>
</svg>