<?xml version="1.0" encoding="utf-8"?>
<!-- Generator: Adobe Illustrator 28.3.0, SVG Export Plug-In . SVG Version: 6.00 Build 0)  -->
<svg version="1.1" id="Layer_1" xmlns="http://www.w3.org/2000/svg" xmlns:xlink="http://www.w3.org/1999/xlink" x="0px" y="0px"
	 viewBox="0 0 720 216" style="enable-background:new 0 0 720 216;" xml:space="preserve">
<style type="text/css">
	.st0{fill:#25E2CC;}
	.st1{fill:#003D5B;}
</style>
<g>
	<path class="st0" d="M575.7,83.8h-22.5c-6.2,0-11.3-5-11.3-11.3v0c0-6.2,5-11.3,11.3-11.3h22.5c6.2,0,11.3,5,11.3,11.3v0
		C587,78.8,581.9,83.8,575.7,83.8z"/>
	<path class="st1" d="M64.8,123.4c0-17.6,14.3-31.3,33.1-31.3c11.9,0,18.6,4.2,22.1,6.7l-6.9,13c-2.8-1.8-6.9-4.1-13.2-4.1
		c-10.5,0-17.6,6.6-17.6,15.7c0,9.2,6.9,15.7,17.3,15.7c6.7,0,10.7-2.2,13.5-4.1l6.8,12.8c-3.7,2.4-10.1,6.8-22,6.8
		C78.7,154.7,64.8,141.1,64.8,123.4z"/>
	<path class="st1" d="M122.9,123.4c0-17.8,14.5-31.3,32.6-31.3s32.6,13.5,32.6,31.3s-14.5,31.3-32.6,31.3S122.9,141.2,122.9,123.4z
		 M170.9,123.4c0-8.6-6.6-15.7-15.3-15.7c-8.6,0-15.3,7.1-15.3,15.7c0,8.8,6.7,15.7,15.3,15.7C164.3,139.1,170.9,132.2,170.9,123.4z
		"/>
	<path class="st1" d="M258.5,120.3v33.3h-17.2v-30.9c0-9.2-5.4-15.1-13.2-15.1c-8.6,0-14,6.6-14,14.5v31.4h-17.2V93.3h12.3l0.7,10.2
		c3.5-6.3,11.1-11.4,22.1-11.4C248.1,92.1,258.5,103.1,258.5,120.3z"/>
	<path class="st1" d="M266.4,123.4c0-17.6,14.3-31.3,33.1-31.3c11.9,0,18.6,4.2,22.1,6.7l-6.9,13c-2.8-1.8-6.9-4.1-13.2-4.1
		c-10.5,0-17.6,6.6-17.6,15.7c0,9.2,6.9,15.7,17.3,15.7c6.7,0,10.7-2.2,13.5-4.1l6.8,12.8c-3.7,2.4-10.1,6.8-22,6.8
		C280.3,154.7,266.4,141.1,266.4,123.4z"/>
	<path class="st1" d="M385.9,128.1h-44.3c2,6.9,8.6,12.2,18.1,12.2c8.8,0,13.4-4.1,16-6.2l7.1,12.3c-3.7,3.3-11.1,8.3-24.9,8.3
		c-19.1,0-33.1-13.6-33.1-31.3c0-17.6,13-31.3,31.4-31.3c18.2,0,30,13.4,30,31.4C386.2,125.8,385.9,128.1,385.9,128.1z M341.7,117.1
		h28c-0.8-6.8-6.2-11.4-13-11.4C349.3,105.7,343.7,109.6,341.7,117.1z"/>
	<path class="st1" d="M456.3,120.3v33.3h-17.2v-30.9c0-9.2-5.4-15.1-13.2-15.1c-8.6,0-14,6.6-14,14.5v31.4h-17.2V93.3h12.3l0.7,10.2
		c3.5-6.3,11.1-11.4,22.1-11.4C446,92.1,456.3,103.1,456.3,120.3z"/>
	<path class="st1" d="M559.2,92.6l-1.4,17c-1.7-0.7-3.3-1.2-6-1.2c-9.6,0-15.5,6.3-15.5,14.8v30.3h-17.2V93.3h14.3l0.7,11.8
		c2.1-7.3,9.6-13,19.9-13C555.8,92.1,557.6,92.2,559.2,92.6z"/>
	<path class="st1" d="M567.1,93.3h17.2v60.3h-17.2V93.3z"/>
	<path class="st1" d="M635,153.5l-12.6-19.1l-12.6,19.1h-19.7l21.6-30.3l-20.6-30h19.9l11.7,18.5L635,93.3h19.5l-21.4,29.6l22,30.7
		H635z"/>
	<g>
		<polygon class="st1" points="660.4,98.3 660.4,94 658.6,94 658.6,93.3 663,93.3 663,94 661.2,94 661.2,98.3 		"/>
		<polygon class="st1" points="669.6,98.3 669.6,93.3 668.9,93.3 666.7,96.7 664.5,93.3 663.8,93.3 663.8,98.3 664.6,98.3 
			664.6,94.8 666.5,97.7 666.9,97.7 668.8,94.8 668.8,98.3 		"/>
	</g>
	<path class="st1" d="M506.5,136c-1.6,0.9-4.8,3.3-10,3.3c-6.2,0-10.6-2.6-10.6-9.7v-21.9h22.4V93.3h-22.4V72.6h-16.6v20.7l0,0h-9.4
		c5.6,7,8.9,16.2,8.9,27l0,0v11c0,15.1,9,23.5,23.8,23.5c11.4,0,17.4-4.3,19.8-6L506.5,136z"/>
	<circle class="st1" cx="575.7" cy="72.6" r="11.3"/>
</g>
</svg>
