<?xml version="1.0" encoding="UTF-8"?>
<svg id="Ebene_12" data-name="Ebene 12" xmlns="http://www.w3.org/2000/svg" viewBox="0 0 1920 1080">
  <defs>
    <style>
      .cls-1 {
        fill: #25e2cc;
      }

      .cls-1, .cls-2 {
        stroke-width: 0px;
      }

      .cls-2 {
        fill: #a8f3eb;
      }
    </style>
  </defs>
  <path class="cls-2" d="M1268.87,221.34c175.71,0,318.66,142.95,318.66,318.66s-142.95,318.66-318.66,318.66h-700.36c-175.71,0-318.66-142.95-318.66-318.66s142.95-318.66,318.66-318.66h700.36M1268.87,189.82h-700.36c-193.4,0-350.18,156.78-350.18,350.18s156.78,350.18,350.18,350.18h700.36c193.4,0,350.18-156.78,350.18-350.18s-156.78-350.18-350.18-350.18h0Z"/>
  <path class="cls-1" d="M1268.87,221.34c175.71,0,318.66,142.95,318.66,318.66s-142.95,318.66-318.66,318.66-318.66-142.95-318.66-318.66,142.95-318.66,318.66-318.66M1268.87,189.82c-193.4,0-350.18,156.78-350.18,350.18s156.78,350.18,350.18,350.18,350.18-156.78,350.18-350.18-156.78-350.18-350.18-350.18h0Z"/>
</svg>