<?xml version="1.0" encoding="UTF-8" standalone="no"?>
<!DOCTYPE svg PUBLIC "-//W3C//DTD SVG 1.1//EN" "http://www.w3.org/Graphics/SVG/1.1/DTD/svg11.dtd">
<svg width="100%" height="100%" viewBox="0 0 1483 400" version="1.1" xmlns="http://www.w3.org/2000/svg" xmlns:xlink="http://www.w3.org/1999/xlink" xml:space="preserve" xmlns:serif="http://www.serif.com/" style="fill-rule:evenodd;clip-rule:evenodd;stroke-linejoin:round;stroke-miterlimit:2;">
    <g id="Page-1" serif:id="Page 1" transform="matrix(4.166667,0,0,2.871748,0,0)">
        <rect x="0" y="0" width="355.747" height="139.033" style="fill:none;"/>
        <g id="Layer-1" serif:id="Layer 1" transform="matrix(1,0,0,1.450916,0,-32.939997)">
            <g transform="matrix(1,0,0,1,0,25.86)">
                <rect x="13.83" y="31.265" width="14.422" height="50.643" style="fill:rgb(0,61,91);"/>
            </g>
            <g transform="matrix(1,0,0,1,70.8953,57.1248)">
                <path d="M0,50.643L-10.569,34.569L-21.138,50.643L-37.652,50.643L-19.487,25.211L-36.771,0L-20.037,0L-10.239,15.523L0,0L16.404,0L-1.541,24.882L16.954,50.643L0,50.643Z" style="fill:rgb(0,61,91);fill-rule:nonzero;"/>
            </g>
            <g transform="matrix(1,0,0,1,41.8229,30.9611)">
                <path d="M0,18.944L-18.945,18.944C-24.176,18.944 -28.417,14.703 -28.417,9.472C-28.417,4.24 -24.176,0 -18.945,0L0,0C5.231,0 9.472,4.24 9.472,9.472C9.472,14.703 5.231,18.944 0,18.944" style="fill:rgb(37,226,204);fill-rule:nonzero;"/>
            </g>
            <g transform="matrix(0,-1,-1,0,41.8231,30.9609)">
                <path d="M-9.472,-9.472C-14.703,-9.472 -18.944,-5.231 -18.944,0C-18.944,5.232 -14.703,9.472 -9.472,9.472C-4.241,9.472 0,5.232 0,0C0,-5.231 -4.241,-9.472 -9.472,-9.472" style="fill:rgb(0,61,91);fill-rule:nonzero;"/>
            </g>
            <g transform="matrix(1,0,0,1,322.1113,36.3464)">
                <path d="M0,10.918L0,1.553L-3.974,1.553L-3.974,0L5.866,0L5.866,1.553L1.893,1.553L1.893,10.918L0,10.918Z" style="fill:rgb(0,61,91);fill-rule:nonzero;"/>
            </g>
            <g transform="matrix(1,0,0,1,342.3407,36.3464)">
                <path d="M0,10.918L-0.026,0L-1.578,0L-6.344,7.465L-11.208,0L-12.76,0L-12.76,10.918L-10.944,10.918L-10.944,3.398L-6.812,9.629L-5.945,9.629L-1.839,3.253L-1.815,10.918L0,10.918Z" style="fill:rgb(0,61,91);fill-rule:nonzero;"/>
            </g>
            <g transform="matrix(0.225514,0,0,0.225514,2.186773,-74.730606)">
                <g transform="matrix(391.918629,0,0,391.918629,1318.326407,803.335531)">
                </g>
                <text x="425.027px" y="803.336px" style="font-family:'ArialMT', 'Arial', sans-serif;font-size:391.919px;fill:rgb(0,61,91);">Suite</text>
            </g>
        </g>
    </g>
</svg>
